g 0
v -0.0143336 0.0375 -0.404421
v -0.015 0.02 -0.4
v -0.015 0.0375 -0.4
v -0.014709 0.020215 -0.39706
v -0.0143336 0.0375 -0.395579
v -0.013836 0.0208222 -0.394206
v -0.0123936 0.0375 -0.39155
v -0.0124348 0.0216859 -0.391617
v -0.0106319 0.0226266 -0.389419
v -0.0143336 -0.0375 -0.404421
v -0.0123936 0.0375 -0.40845
v -0.0123936 -0.0375 -0.40845
v -0.00935235 0.0375 -0.411727
v -0.00935235 -0.0375 -0.411727
v -0.00548012 0.0375 -0.413963
v -0.00548012 -0.0375 -0.413963
v -0.00112095 0.0375 -0.414958
v -0.00112095 -0.0375 -0.414958
v 0.00333781 0.0375 -0.414624
v 0.00333781 -0.0375 -0.414624
v 0.0075 0.0375 -0.41299
v 0.0075 -0.0375 -0.41299
v 0.0109958 0.0375 -0.410203
v 0.0109958 -0.0375 -0.410203
v 0.0135145 0.0375 -0.406508
v 0.0135145 -0.0375 -0.406508
v 0.0148325 0.0375 -0.402236
v 0.0148325 -0.0375 -0.402236
v 0.015 -0.02 -0.4
v 0.0148325 -0.0375 -0.397764
v 0.014709 -0.020215 -0.39706
v 0.013836 -0.0208222 -0.394206
v 0.015 0.02 -0.4
v 0.0148325 0.0375 -0.397764
v 0.014709 0.020215 -0.39706
v 0.013836 0.0208222 -0.394206
v 0.0135145 0.0375 -0.393492
v 0.0124348 0.0216859 -0.391617
v 0.0109958 0.0375 -0.389797
v 0.0106319 0.0226266 -0.389419
v 0.00843562 0.0235318 -0.387601
v 0.0075 0.0375 -0.38701
v 0.00582921 0.0243109 -0.386179
v 0.00333781 0.0375 -0.385376
v 0.00295206 0.0248251 -0.385293
v 4.62593e-20 0.025 -0.385
v -0.00112095 0.0375 -0.385042
v -0.00295206 0.0248251 -0.385293
v -0.00548012 0.0375 -0.386037
v -0.00582921 0.0243109 -0.386179
v -0.00843562 0.0235318 -0.387601
v -0.00935235 0.0375 -0.388273
v -0.0106319 0.0226266 -0.389419
v -0.0123936 0.0375 -0.39155
v -0.0143336 -0.0375 -0.395579
v -0.014709 -0.020215 -0.39706
v -0.015 -0.0375 -0.4
v -0.015 -0.02 -0.4
v -0.0143336 -0.0375 -0.404421
v -0.015 0.02 -0.4
v -0.013836 -0.0208222 -0.394206
v -0.0123936 -0.0375 -0.39155
v -0.0124348 -0.0216859 -0.391617
v -0.0106319 -0.0226266 -0.389419
v -0.00935235 -0.0375 -0.388273
v -0.00843562 -0.0235318 -0.387601
v -0.00548012 -0.0375 -0.386037
v -0.00582921 -0.0243109 -0.386179
v -0.00295206 -0.0248251 -0.385293
v -0.00112095 -0.0375 -0.385042
v 4.04769e-18 -0.025 -0.385
v 0.00333781 -0.0375 -0.385376
v 0.00295206 -0.0248251 -0.385293
v 0.00582921 -0.0243109 -0.386179
v 0.0075 -0.0375 -0.38701
v 0.00843562 -0.0235318 -0.387601
v 0.0109958 -0.0375 -0.389797
v 0.0106319 -0.0226266 -0.389419
v 0.0124348 -0.0216859 -0.391617
v 0.0135145 -0.0375 -0.393492
v 0.013836 -0.0208222 -0.394206
v 0.0148325 -0.0375 -0.397764
v -0.0143336 -0.0375 -0.395579
v -0.0123936 -0.0375 -0.40845
v -0.00935235 -0.0375 -0.411727
v -0.00548012 -0.0375 -0.413963
v -0.00112095 -0.0375 -0.414958
v 0.00333781 -0.0375 -0.414624
v 0.0075 -0.0375 -0.41299
v 0.0109958 -0.0375 -0.410203
v 0.0135145 -0.0375 -0.406508
v 0.0148325 -0.0375 -0.402236
v -0.015 0.0375 -0.4
v -0.0143336 0.0375 -0.395579
v -0.0143336 0.0375 -0.404421
v -0.0123936 0.0375 -0.40845
v -0.0123936 0.0375 -0.39155
v -0.00935235 0.0375 -0.411727
v -0.00935235 0.0375 -0.388273
v -0.00548012 0.0375 -0.413963
v -0.00548012 0.0375 -0.386037
v -0.00112095 0.0375 -0.414958
v -0.00112095 0.0375 -0.385042
v 0.00333781 0.0375 -0.414624
v 0.00333781 0.0375 -0.385376
v 0.0075 0.0375 -0.41299
v 0.0075 0.0375 -0.38701
v 0.0109958 0.0375 -0.410203
v 0.0109958 0.0375 -0.389797
v 0.0135145 0.0375 -0.406508
v 0.0135145 0.0375 -0.393492
v 0.0148325 0.0375 -0.402236
v 0.0148325 0.0375 -0.397764
v -0.015 0.02 -0.4
v -0.015 -0.02 -0.4
v -0.0191938 0.0160187 -0.4
v -0.0191938 -0.0160187 -0.4
v -0.0223607 -0.0111803 -0.4
v -0.0223607 0.0111803 -0.4
v -0.0243312 -0.00574382 -0.4
v -0.0243312 0.00574382 -0.4
v -0.025 3.06162e-18 -0.4
v -0.0245196 -0.00487726 -0.00487726
v -0.025 0 0
v -0.025 -3.06162e-18 -0.1
v -0.0245196 0.00487726 -0.00487726
v -0.0243273 0.00576024 -0.1
v -0.023097 0.00956709 -0.00956709
v -0.0223454 0.0112109 -0.1
v -0.0207867 0.0138893 -0.0138893
v -0.0191511 0.0160697 -0.1
v -0.0176777 0.0176777 -0.0176777
v -0.014929 0.0200531 -0.1
v -0.0138893 0.0207867 -0.0207867
v -0.00990199 0.0229554 -0.1
v -0.00956709 0.023097 -0.023097
v -0.00487726 0.0245196 -0.0245196
v -0.0043412 0.0246202 -0.1
v -3.06162e-18 0.025 -0.025
v 0.00145362 0.0249577 -0.1
v 0.00487726 0.0245196 -0.0245196
v 0.00717008 0.0239497 -0.1
v 0.00956709 0.023097 -0.023097
v 0.0125 0.0216506 -0.1
v 0.0138893 0.0207867 -0.0207867
v 0.017156 0.0181843 -0.1
v 0.0176777 0.0176777 -0.0176777
v 0.0208872 0.0137377 -0.1
v 0.0207867 0.0138893 -0.0138893
v 0.023097 0.00956709 -0.00956709
v 0.0234923 0.0085505 -0.1
v 0.0245196 0.00487726 -0.00487726
v 0.024831 0.00290232 -0.1
v 0.025 0 0
v 0.024831 -0.00290232 -0.1
v 0.0245196 -0.00487726 -0.00487726
v 0.0234923 -0.0085505 -0.1
v 0.023097 -0.00956709 -0.00956709
v 0.0208872 -0.0137377 -0.1
v 0.0207867 -0.0138893 -0.0138893
v 0.0176777 -0.0176777 -0.0176777
v 0.017156 -0.0181843 -0.1
v 0.0138893 -0.0207867 -0.0207867
v 0.0125 -0.0216506 -0.1
v 0.00956709 -0.023097 -0.023097
v 0.00717008 -0.0239497 -0.1
v 0.00487726 -0.0245196 -0.0245196
v 0.00145362 -0.0249577 -0.1
v 3.06162e-18 -0.025 -0.025
v -0.0043412 -0.0246202 -0.1
v -0.00487726 -0.0245196 -0.0245196
v -0.00990199 -0.0229554 -0.1
v -0.00956709 -0.023097 -0.023097
v -0.0138893 -0.0207867 -0.0207867
v -0.014929 -0.0200531 -0.1
v -0.0176777 -0.0176777 -0.0176777
v -0.0191511 -0.0160697 -0.1
v -0.0207867 -0.0138893 -0.0138893
v -0.0223454 -0.0112109 -0.1
v -0.023097 -0.00956709 -0.00956709
v -0.0243273 -0.00576024 -0.1
v -0.0245196 -0.00487726 -0.00487726
v -0.025 -3.06162e-18 -0.1
v 0.014709 0.020215 -0.39706
v 0.0125 0.0216506 -0.3
v 0.015 0.02 -0.4
v 0.017156 0.0181843 -0.3
v 0.0191938 0.0160187 -0.4
v 0.0208872 0.0137377 -0.3
v 0.0223607 0.0111803 -0.4
v 0.0234923 0.0085505 -0.3
v 0.0243312 0.00574382 -0.4
v 0.024831 0.00290232 -0.3
v 0.025 -6.12323e-18 -0.4
v 0.024831 -0.00290232 -0.3
v 0.0243312 -0.00574382 -0.4
v 0.0234923 -0.0085505 -0.3
v 0.0223607 -0.0111803 -0.4
v 0.0208872 -0.0137377 -0.3
v 0.0191938 -0.0160187 -0.4
v 0.017156 -0.0181843 -0.3
v 0.015 -0.02 -0.4
v 0.014709 -0.020215 -0.39706
v 0.0125 -0.0216506 -0.3
v 0.013836 -0.0208222 -0.394206
v 0.0124348 -0.0216859 -0.391617
v 0.0106319 -0.0226266 -0.389419
v 0.00717008 -0.0239497 -0.3
v 0.00843562 -0.0235318 -0.387601
v 0.00582921 -0.0243109 -0.386179
v 0.00295206 -0.0248251 -0.385293
v 0.00145362 -0.0249577 -0.3
v 4.04769e-18 -0.025 -0.385
v -0.0043412 -0.0246202 -0.3
v -0.00295206 -0.0248251 -0.385293
v -0.00582921 -0.0243109 -0.386179
v -0.00843562 -0.0235318 -0.387601
v -0.00990199 -0.0229554 -0.3
v -0.0106319 -0.0226266 -0.389419
v -0.0124348 -0.0216859 -0.391617
v -0.014929 -0.0200531 -0.3
v -0.013836 -0.0208222 -0.394206
v -0.014709 -0.020215 -0.39706
v -0.015 -0.02 -0.4
v -0.0191511 -0.0160697 -0.3
v -0.0191938 -0.0160187 -0.4
v -0.0223556 -0.0111905 -0.3
v -0.0223607 -0.0111803 -0.4
v -0.0243299 -0.0057493 -0.3
v -0.0243312 -0.00574382 -0.4
v -0.025 -3.06162e-18 -0.3
v -0.025 3.06162e-18 -0.4
v -0.0243312 0.00574382 -0.4
v -0.0243299 0.0057493 -0.3
v -0.0223607 0.0111803 -0.4
v -0.0223556 0.0111905 -0.3
v -0.0191938 0.0160187 -0.4
v -0.0191511 0.0160697 -0.3
v -0.015 0.02 -0.4
v -0.014929 0.0200531 -0.3
v -0.014709 0.020215 -0.39706
v -0.013836 0.0208222 -0.394206
v -0.0124348 0.0216859 -0.391617
v -0.00990199 0.0229554 -0.3
v -0.0106319 0.0226266 -0.389419
v -0.00843562 0.0235318 -0.387601
v -0.00582921 0.0243109 -0.386179
v -0.0043412 0.0246202 -0.3
v -0.00295206 0.0248251 -0.385293
v 4.62593e-20 0.025 -0.385
v 0.00145362 0.0249577 -0.3
v 0.00295206 0.0248251 -0.385293
v 0.00717008 0.0239497 -0.3
v 0.00582921 0.0243109 -0.386179
v 0.00843562 0.0235318 -0.387601
v 0.0106319 0.0226266 -0.389419
v 0.0125 0.0216506 -0.3
v 0.0124348 0.0216859 -0.391617
v 0.013836 0.0208222 -0.394206
v 0.014709 0.020215 -0.39706
v -0.025 -3.06162e-18 -0.1
v -0.025 -3.06162e-18 -0.2
v -0.0243286 -0.00575477 -0.2
v -0.0243299 -0.0057493 -0.3
v -0.0223556 -0.0111905 -0.3
v -0.0243299 0.0057493 -0.3
v -0.025 -3.06162e-18 -0.3
v -0.0243286 0.00575477 -0.2
v -0.0243273 0.00576024 -0.1
v -0.0223505 0.0112007 -0.2
v -0.0223454 0.0112109 -0.1
v -0.0191511 0.0160697 -0.2
v -0.0191511 0.0160697 -0.1
v -0.014929 0.0200531 -0.2
v -0.014929 0.0200531 -0.1
v -0.00990199 0.0229554 -0.2
v -0.00990199 0.0229554 -0.1
v -0.0043412 0.0246202 -0.2
v -0.0043412 0.0246202 -0.1
v 0.00145362 0.0249577 -0.2
v 0.00145362 0.0249577 -0.1
v 0.00717008 0.0239497 -0.2
v 0.00717008 0.0239497 -0.1
v 0.0125 0.0216506 -0.2
v 0.0125 0.0216506 -0.1
v 0.017156 0.0181843 -0.2
v 0.017156 0.0181843 -0.1
v 0.0208872 0.0137377 -0.2
v 0.0208872 0.0137377 -0.1
v 0.0234923 0.0085505 -0.2
v 0.0234923 0.0085505 -0.1
v 0.024831 0.00290232 -0.2
v 0.024831 0.00290232 -0.1
v 0.024831 -0.00290232 -0.2
v 0.024831 -0.00290232 -0.1
v 0.0234923 -0.0085505 -0.2
v 0.0234923 -0.0085505 -0.1
v 0.0208872 -0.0137377 -0.2
v 0.0208872 -0.0137377 -0.1
v 0.017156 -0.0181843 -0.2
v 0.017156 -0.0181843 -0.1
v 0.0125 -0.0216506 -0.2
v 0.0125 -0.0216506 -0.1
v 0.00717008 -0.0239497 -0.2
v 0.00717008 -0.0239497 -0.1
v 0.00145362 -0.0249577 -0.2
v 0.00145362 -0.0249577 -0.1
v -0.0043412 -0.0246202 -0.2
v -0.0043412 -0.0246202 -0.1
v -0.00990199 -0.0229554 -0.2
v -0.00990199 -0.0229554 -0.1
v -0.014929 -0.0200531 -0.2
v -0.014929 -0.0200531 -0.1
v -0.0191511 -0.0160697 -0.2
v -0.0191511 -0.0160697 -0.1
v -0.0223454 -0.0112109 -0.1
v -0.0223556 0.0111905 -0.3
v -0.0243299 0.0057493 -0.3
v -0.0243286 0.00575477 -0.2
v -0.025 -3.06162e-18 -0.2
v -0.0223505 0.0112007 -0.2
v -0.0191511 0.0160697 -0.3
v -0.0191511 0.0160697 -0.2
v -0.014929 0.0200531 -0.3
v -0.014929 0.0200531 -0.2
v -0.00990199 0.0229554 -0.3
v -0.00990199 0.0229554 -0.2
v -0.0043412 0.0246202 -0.3
v -0.0043412 0.0246202 -0.2
v 0.00145362 0.0249577 -0.3
v 0.00145362 0.0249577 -0.2
v 0.00717008 0.0239497 -0.3
v 0.00717008 0.0239497 -0.2
v 0.0125 0.0216506 -0.3
v 0.0125 0.0216506 -0.2
v 0.017156 0.0181843 -0.3
v 0.017156 0.0181843 -0.2
v 0.0208872 0.0137377 -0.3
v 0.0208872 0.0137377 -0.2
v 0.0234923 0.0085505 -0.3
v 0.0234923 0.0085505 -0.2
v 0.024831 0.00290232 -0.3
v 0.024831 0.00290232 -0.2
v 0.024831 -0.00290232 -0.3
v 0.024831 -0.00290232 -0.2
v 0.0234923 -0.0085505 -0.3
v 0.0234923 -0.0085505 -0.2
v 0.0208872 -0.0137377 -0.3
v 0.0208872 -0.0137377 -0.2
v 0.017156 -0.0181843 -0.3
v 0.017156 -0.0181843 -0.2
v 0.0125 -0.0216506 -0.3
v 0.0125 -0.0216506 -0.2
v 0.00717008 -0.0239497 -0.3
v 0.00717008 -0.0239497 -0.2
v 0.00145362 -0.0249577 -0.3
v 0.00145362 -0.0249577 -0.2
v -0.0043412 -0.0246202 -0.3
v -0.0043412 -0.0246202 -0.2
v -0.00990199 -0.0229554 -0.3
v -0.00990199 -0.0229554 -0.2
v -0.014929 -0.0200531 -0.3
v -0.014929 -0.0200531 -0.2
v -0.0191511 -0.0160697 -0.3
v -0.0191511 -0.0160697 -0.2
v -0.0223505 -0.0112007 -0.2
v -0.0223454 -0.0112109 -0.1
v -0.0243273 -0.00576024 -0.1
v -0.0243286 -0.00575477 -0.2
v -0.0223556 -0.0111905 -0.3
v -0.025 -3.06162e-18 -0.1
v 0.0193185 0.0375 -0.00517638
v 0.0193185 -0.0375 -0.00517638
v 0.02 0.0375 0
v 0.02 -0.0375 0
v 0.0193185 0.0375 0.00517638
v 0.0193185 -0.0375 0.00517638
v 0.0173205 0.0375 0.01
v 0.0173205 -0.0375 0.01
v 0.0141421 0.0375 0.0141421
v 0.0141421 -0.0375 0.0141421
v 0.01 0.0375 0.0173205
v 0.01 -0.0375 0.0173205
v 0.00517638 0.0375 0.0193185
v 0.00517638 -0.0375 0.0193185
v 1.22465e-18 0.0375 0.02
v -3.67394e-18 -0.0375 0.02
v -0.00517638 0.0375 0.0193185
v -0.00517638 -0.0375 0.0193185
v -0.01 0.0375 0.0173205
v -0.01 -0.0375 0.0173205
v -0.0141421 0.0375 0.0141421
v -0.0141421 -0.0375 0.0141421
v -0.0173205 0.0375 0.01
v -0.0173205 -0.0375 0.01
v -0.0193185 0.0375 0.00517638
v -0.0193185 -0.0375 0.00517638
v -0.02 0.0375 2.44929e-18
v -0.02 -0.0375 -2.44929e-18
v -0.0193185 0.0375 -0.00517638
v -0.0193185 -0.0375 -0.00517638
v -0.0173205 0.0375 -0.01
v -0.0173205 -0.0375 -0.01
v -0.0141421 0.0375 -0.0141421
v -0.0141421 -0.0375 -0.0141421
v -0.01 0.0375 -0.0173205
v -0.01 -0.0375 -0.0173205
v -0.00517638 0.0375 -0.0193185
v -0.00517638 -0.0375 -0.0193185
v -3.67394e-18 0.0375 -0.02
v 1.22465e-18 -0.0375 -0.02
v 0.00517638 0.0375 -0.0193185
v 0.00517638 -0.0375 -0.0193185
v 0.01 0.0375 -0.0173205
v 0.01 -0.0375 -0.0173205
v 0.0141421 0.0375 -0.0141421
v 0.0141421 -0.0375 -0.0141421
v 0.0173205 0.0375 -0.01
v 0.0173205 -0.0375 -0.01
v 0.0193185 0.0375 -0.00517638
v 0.0193185 -0.0375 -0.00517638
v -0.0243261 0.0375 -0.0057654
v -0.0245196 0.00487726 -0.00487726
v -0.025 0.0375 0
v -0.025 0 0
v -0.0243261 0.0375 0.0057654
v -0.0243261 -0.0375 0.0057654
v -0.0223408 -0.0375 0.01122
v -0.023097 0.00956709 -0.00956709
v -0.0223408 0.0375 -0.01122
v -0.0207867 0.0138893 -0.0138893
v -0.0191511 0.0375 -0.0160697
v -0.0176777 0.0176777 -0.0176777
v -0.014929 0.0375 -0.0200531
v -0.0138893 0.0207867 -0.0207867
v -0.00990199 0.0375 -0.0229554
v -0.00956709 0.023097 -0.023097
v -0.00487726 0.0245196 -0.0245196
v -0.0043412 0.0375 -0.0246202
v -3.06162e-18 0.025 -0.025
v 0.00145362 0.0375 -0.0249577
v 0.00487726 0.0245196 -0.0245196
v 0.00717008 0.0375 -0.0239497
v 0.00956709 0.023097 -0.023097
v 0.0125 0.0375 -0.0216506
v 0.0138893 0.0207867 -0.0207867
v 0.017156 0.0375 -0.0181843
v 0.0176777 0.0176777 -0.0176777
v 0.0208872 0.0375 -0.0137377
v 0.0207867 0.0138893 -0.0138893
v 0.023097 0.00956709 -0.00956709
v 0.0234923 0.0375 -0.0085505
v 0.0245196 0.00487726 -0.00487726
v 0.024831 0.0375 -0.00290232
v 0.025 0 0
v 0.024831 0.0375 0.00290232
v 0.024831 -0.0375 0.00290232
v 0.0234923 0.0375 0.0085505
v 0.0234923 -0.0375 0.0085505
v 0.0208872 0.0375 0.0137377
v 0.0208872 -0.0375 0.0137377
v 0.017156 0.0375 0.0181843
v 0.017156 -0.0375 0.0181843
v 0.0125 0.0375 0.0216506
v 0.0125 -0.0375 0.0216506
v 0.00717008 0.0375 0.0239497
v 0.00717008 -0.0375 0.0239497
v 0.00145362 0.0375 0.0249577
v 0.00145362 -0.0375 0.0249577
v -0.0043412 0.0375 0.0246202
v -0.0043412 -0.0375 0.0246202
v -0.00990199 0.0375 0.0229554
v -0.00990199 -0.0375 0.0229554
v -0.014929 0.0375 0.0200531
v -0.014929 -0.0375 0.0200531
v -0.0191511 0.0375 0.0160697
v -0.0191511 -0.0375 0.0160697
v -0.0223408 0.0375 0.01122
v -0.0223408 -0.0375 0.01122
v -0.0243261 0.0375 0.0057654
v -0.0243261 -0.0375 0.0057654
v -0.025 0 0
v -0.025 -0.0375 0
v -0.0245196 -0.00487726 -0.00487726
v -0.0243261 -0.0375 -0.0057654
v -0.023097 -0.00956709 -0.00956709
v -0.0223408 -0.0375 -0.01122
v -0.0207867 -0.0138893 -0.0138893
v -0.0191511 -0.0375 -0.0160697
v -0.0176777 -0.0176777 -0.0176777
v -0.014929 -0.0375 -0.0200531
v -0.0138893 -0.0207867 -0.0207867
v -0.00990199 -0.0375 -0.0229554
v -0.00956709 -0.023097 -0.023097
v -0.00487726 -0.0245196 -0.0245196
v 0.024831 -0.0375 0.00290232
v 0.024831 -0.0375 -0.00290232
v 0.025 0 0
v 0.0245196 -0.00487726 -0.00487726
v 0.0234923 -0.0375 -0.0085505
v 0.023097 -0.00956709 -0.00956709
v 0.0208872 -0.0375 -0.0137377
v 0.0207867 -0.0138893 -0.0138893
v 0.0176777 -0.0176777 -0.0176777
v 0.017156 -0.0375 -0.0181843
v 0.0138893 -0.0207867 -0.0207867
v 0.0125 -0.0375 -0.0216506
v 0.00956709 -0.023097 -0.023097
v 0.00717008 -0.0375 -0.0239497
v 0.00487726 -0.0245196 -0.0245196
v 0.00145362 -0.0375 -0.0249577
v 3.06162e-18 -0.025 -0.025
v -0.0043412 -0.0375 -0.0246202
v 0.0193185 -0.0375 -0.00517638
v 0.02 -0.0375 0
v 0.0193185 -0.0375 0.00517638
v 0.0234923 -0.0375 0.0085505
v 0.0173205 -0.0375 0.01
v 0.0208872 -0.0375 0.0137377
v 0.0141421 -0.0375 0.0141421
v 0.017156 -0.0375 0.0181843
v 0.01 -0.0375 0.0173205
v 0.0125 -0.0375 0.0216506
v 0.00717008 -0.0375 0.0239497
v 0.024831 -0.0375 -0.00290232
v 0.0173205 -0.0375 -0.01
v 0.0141421 -0.0375 -0.0141421
v 0.01 -0.0375 -0.0173205
v 0.00517638 -0.0375 -0.0193185
v 1.22465e-18 -0.0375 -0.02
v -0.00517638 -0.0375 -0.0193185
v -0.00990199 -0.0375 -0.0229554
v -0.01 -0.0375 -0.0173205
v -0.014929 -0.0375 -0.0200531
v -0.0141421 -0.0375 -0.0141421
v -0.0191511 -0.0375 -0.0160697
v -0.0173205 -0.0375 -0.01
v -0.0223408 -0.0375 -0.01122
v -0.0193185 -0.0375 -0.00517638
v -0.0243261 -0.0375 -0.0057654
v -0.02 -0.0375 -2.44929e-18
v -0.025 -0.0375 0
v -0.0243261 -0.0375 0.0057654
v -0.0193185 -0.0375 0.00517638
v -0.0223408 -0.0375 0.01122
v -0.0173205 -0.0375 0.01
v -0.0191511 -0.0375 0.0160697
v -0.0141421 -0.0375 0.0141421
v -0.014929 -0.0375 0.0200531
v -0.01 -0.0375 0.0173205
v -0.00990199 -0.0375 0.0229554
v -0.00517638 -0.0375 0.0193185
v -0.0043412 -0.0375 0.0246202
v -3.67394e-18 -0.0375 0.02
v 0.00145362 -0.0375 0.0249577
v 0.00517638 -0.0375 0.0193185
v 0.00717008 -0.0375 0.0239497
v 0.01 -0.0375 0.0173205
v 0.0193185 0.0375 0.00517638
v 0.024831 0.0375 0.00290232
v 0.02 0.0375 0
v 0.024831 0.0375 -0.00290232
v 0.0193185 0.0375 -0.00517638
v 0.0234923 0.0375 -0.0085505
v 0.0173205 0.0375 -0.01
v 0.0208872 0.0375 -0.0137377
v 0.0141421 0.0375 -0.0141421
v 0.017156 0.0375 -0.0181843
v 0.01 0.0375 -0.0173205
v 0.0125 0.0375 -0.0216506
v 0.00717008 0.0375 -0.0239497
v 0.0234923 0.0375 0.0085505
v 0.0173205 0.0375 0.01
v 0.0208872 0.0375 0.0137377
v 0.0141421 0.0375 0.0141421
v 0.017156 0.0375 0.0181843
v 0.01 0.0375 0.0173205
v 0.0125 0.0375 0.0216506
v 0.00717008 0.0375 0.0239497
v 0.00517638 0.0375 0.0193185
v 0.00145362 0.0375 0.0249577
v 1.22465e-18 0.0375 0.02
v -0.0043412 0.0375 0.0246202
v -0.00517638 0.0375 0.0193185
v -0.00990199 0.0375 0.0229554
v -0.01 0.0375 0.0173205
v -0.014929 0.0375 0.0200531
v -0.0141421 0.0375 0.0141421
v -0.0191511 0.0375 0.0160697
v -0.0173205 0.0375 0.01
v -0.0223408 0.0375 0.01122
v -0.0193185 0.0375 0.00517638
v -0.0243261 0.0375 0.0057654
v -0.02 0.0375 2.44929e-18
v -0.025 0.0375 0
v -0.0243261 0.0375 -0.0057654
v -0.0193185 0.0375 -0.00517638
v -0.0223408 0.0375 -0.01122
v -0.0173205 0.0375 -0.01
v -0.0191511 0.0375 -0.0160697
v -0.0141421 0.0375 -0.0141421
v -0.014929 0.0375 -0.0200531
v -0.01 0.0375 -0.0173205
v -0.00990199 0.0375 -0.0229554
v -0.00517638 0.0375 -0.0193185
v -0.0043412 0.0375 -0.0246202
v -3.67394e-18 0.0375 -0.02
v 0.00145362 0.0375 -0.0249577
v 0.00517638 0.0375 -0.0193185
v 0.00717008 0.0375 -0.0239497
v 0.01 0.0375 -0.0173205
v 0.015 0.02 -0.4
v 0.0191938 0.0160187 -0.4
v 0.015 -0.02 -0.4
v 0.0191938 -0.0160187 -0.4
v 0.0223607 -0.0111803 -0.4
v 0.0223607 0.0111803 -0.4
v 0.0243312 -0.00574382 -0.4
v 0.0243312 0.00574382 -0.4
v 0.025 -6.12323e-18 -0.4
vn -0.988831 0 -0.149042
vn -0.995138 0 0.0984896
vn -0.988793 0.00870527 0.149037
vn -0.955971 -0.00437937 0.29343
vn -0.900934 0.00881778 0.433867
vn -0.87955 0.000288627 0.475807
vn -0.773042 -0.000656562 0.634354
vn -0.900969 -4.16782e-17 -0.433884
vn -0.733052 0 -0.680173
vn -0.5 0 -0.866025
vn -0.222521 -3.60278e-17 -0.974928
vn 0.0747301 1.31797e-17 -0.997204
vn 0.365341 0 -0.930874
vn 0.62349 1.00948e-16 -0.781832
vn 0.826239 -3.40498e-16 -0.56332
vn 0.955573 0 -0.294755
vn 0.997204 -6.44928e-17 -0.0747301
vn 0.999954 -0.00957314 7.75907e-16
vn 0.995111 0.00308379 0.0987124
vn 0.956529 -0.00505529 0.291593
vn 0.999954 0.00957314 0
vn 0.995111 -0.00308379 0.0987124
vn 0.956529 0.00505529 0.291593
vn 0.955557 0.00578704 0.29475
vn 0.879017 -0.00348873 0.476778
vn 0.826194 0.0103748 0.56329
vn 0.772602 -0.00273869 0.634885
vn 0.638537 0.00397021 0.769581
vn 0.623466 0.00865386 0.781802
vn 0.477768 -0.00519886 0.878471
vn 0.365313 0.0123427 0.930803
vn 0.293752 -0.00270156 0.955878
vn 0.0990901 0.00347871 0.995072
vn 0.0747263 0.0100471 0.997153
vn -0.0985624 -0.00549964 0.995116
vn -0.222503 0.0128077 0.974848
vn -0.293781 -0.00252242 0.955869
vn -0.479717 0.00324418 0.877417
vn -0.499981 0.00881112 0.865992
vn -0.636415 -0.00469294 0.771332
vn -0.73301 0.0106454 0.680134
vn -0.988793 -0.00870527 0.149037
vn -0.995138 0 0.0984896
vn -0.988831 0 -0.149042
vn -0.955971 0.00437937 0.29343
vn -0.900934 -0.00881778 0.433867
vn -0.87955 -0.000288627 0.475807
vn -0.773042 0.000656562 0.634354
vn -0.73301 -0.0106454 0.680134
vn -0.636415 0.00469294 0.771332
vn -0.499981 -0.00881112 0.865992
vn -0.479717 -0.00324418 0.877417
vn -0.293781 0.00252242 0.955869
vn -0.222503 -0.0128077 0.974848
vn -0.0985624 0.00549964 0.995116
vn 0.0747263 -0.0100471 0.997153
vn 0.0990901 -0.00347871 0.995072
vn 0.293752 0.00270156 0.955878
vn 0.365313 -0.0123427 0.930803
vn 0.477768 0.00519886 0.878471
vn 0.623466 -0.00865386 0.781802
vn 0.638537 -0.00397021 0.769581
vn 0.772602 0.00273869 0.634885
vn 0.826194 -0.0103748 0.56329
vn 0.879017 0.00348873 0.476778
vn 0.955557 -0.00578704 0.29475
vn 0 -1 0
vn 0 1 0
vn 0 0 -1
vn -0.995185 -0.0980171 -3.11101e-17
vn -0.995185 0.0980171 -3.75283e-17
vn -0.99325 0.115988 -0.000931173
vn -0.956727 0.290987 0.000767099
vn -0.939797 0.34173 -0.00159929
vn -0.881396 0.472377 0.00126094
vn -0.835598 0.549339 -0.00196179
vn -0.772315 0.635238 0.00141531
vn -0.68624 0.727372 -0.00192493
vn -0.633826 0.773475 0.00115545
vn -0.499999 0.866024 -0.00145827
vn -0.471219 0.882016 0.000428256
vn -0.290423 0.956898 -0.000496965
vn -0.286803 0.957989 -0.000760525
vn -0.0979556 0.995191 0.000630213
vn -0.0581447 0.998307 -0.00168993
vn 0.0978867 0.995197 0.00133596
vn 0.173648 0.984805 -0.00216071
vn 0.289846 0.957072 0.00157836
vn 0.396079 0.918214 -0.00216372
vn 0.470829 0.882223 0.00136399
vn 0.597158 0.802122 -0.00172516
vn 0.634029 0.773309 0.000742032
vn 0.766044 0.642787 -0.000897794
vn 0.773115 0.634265 -0.000214233
vn 0.881839 0.471551 0.000198933
vn 0.893632 0.448799 -0.00113857
vn 0.956687 0.291117 0.00090962
vn 0.973044 0.230616 -0.00160336
vn 0.995067 0.0992026 0.00119711
vn 0.999999 0 -0.00169041
vn 0.995067 -0.0992026 0.00119711
vn 0.973044 -0.230616 -0.00160336
vn 0.956687 -0.291117 0.00090962
vn 0.893632 -0.448799 -0.00113857
vn 0.881839 -0.471551 0.000198933
vn 0.773115 -0.634265 -0.000214233
vn 0.766044 -0.642787 -0.000897794
vn 0.634029 -0.773309 0.000742032
vn 0.597158 -0.802122 -0.00172516
vn 0.470829 -0.882223 0.00136399
vn 0.396079 -0.918214 -0.00216372
vn 0.289846 -0.957072 0.00157836
vn 0.173648 -0.984805 -0.00216071
vn 0.0978867 -0.995197 0.00133596
vn -0.0581447 -0.998307 -0.00168993
vn -0.0979556 -0.995191 0.000630213
vn -0.286803 -0.957989 -0.000760525
vn -0.290423 -0.956898 -0.000496965
vn -0.471219 -0.882016 0.000428256
vn -0.499999 -0.866024 -0.00145827
vn -0.633826 -0.773475 0.00115545
vn -0.68624 -0.727372 -0.00192493
vn -0.772315 -0.635238 0.00141531
vn -0.835598 -0.549339 -0.00196179
vn -0.881396 -0.472377 0.00126094
vn -0.939797 -0.34173 -0.00159929
vn -0.956727 -0.290987 0.000767099
vn -0.99325 -0.115988 -0.000931173
vn 0.607739 0.794134 0.00208522
vn 0.597158 0.802122 0.00168884
vn 0.688495 0.725239 -0.00167636
vn 0.766043 0.642787 0.00168952
vn 0.836703 0.547655 -0.00167695
vn 0.893631 0.448799 0.00169001
vn 0.940145 0.340769 -0.00167734
vn 0.973044 0.230616 0.00169031
vn 0.993288 0.115652 -0.00167754
vn 0.999999 0 0.00169041
vn 0.993288 -0.115652 -0.00167754
vn 0.973044 -0.230616 0.00169031
vn 0.940145 -0.340769 -0.00167734
vn 0.893631 -0.448799 0.00169001
vn 0.836703 -0.547655 -0.00167695
vn 0.766043 -0.642787 0.00168952
vn 0.688495 -0.725239 -0.00167636
vn 0.60369 -0.797218 0.00145896
vn 0.597158 -0.802122 0.00172625
vn 0.573054 -0.819517 0.000920372
vn 0.524666 -0.851308 -4.54102e-05
vn 0.462584 -0.886575 1.23625e-05
vn 0.396079 -0.918215 0.00174708
vn 0.381823 -0.924235 0.00110609
vn 0.286196 -0.958171 -0.000437322
vn 0.176338 -0.984329 0.0013816
vn 0.173648 -0.984807 0.00151954
vn 0.0590938 -0.998252 -0.000513857
vn -0.0581448 -0.998307 0.00149112
vn -0.0592865 -0.99824 0.0014325
vn -0.175778 -0.98443 -0.000497928
vn -0.287176 -0.957877 0.00152082
vn -0.286803 -0.957988 0.00150199
vn -0.380835 -0.924643 -0.000291435
vn -0.463071 -0.886321 0.000520767
vn -0.499999 -0.866024 0.0018229
vn -0.525856 -0.850573 0.000843618
vn -0.571193 -0.820816 7.46549e-05
vn -0.594164 -0.804344 -4.87911e-06
vn -0.686242 -0.727374 0.000101385
vn -0.688496 -0.72524 -7.60384e-05
vn -0.83585 -0.548959 7.67665e-05
vn -0.836704 -0.547655 -1.31619e-05
vn -0.940031 -0.34109 1.3175e-05
vn -0.940147 -0.34077 -6.4969e-06
vn -0.993277 -0.115764 6.50318e-06
vn -0.99329 -0.115653 -7.32395e-18
vn -0.99329 0.115653 7.08167e-18
vn -0.993277 0.115764 6.50318e-06
vn -0.940147 0.34077 -6.4969e-06
vn -0.940031 0.34109 1.3175e-05
vn -0.836704 0.547655 -1.31619e-05
vn -0.83585 0.548959 7.67665e-05
vn -0.688496 0.72524 -7.60384e-05
vn -0.686242 0.727374 0.000101385
vn -0.594164 0.804344 -4.87911e-06
vn -0.571193 0.820816 7.46549e-05
vn -0.525856 0.850573 0.000843618
vn -0.499999 0.866024 0.0018229
vn -0.463071 0.886321 0.000520767
vn -0.380835 0.924643 -0.000291435
vn -0.287163 0.95788 0.00149524
vn -0.286803 0.957988 0.00151397
vn -0.175778 0.98443 -0.000497928
vn -0.0592865 0.99824 0.0014325
vn -0.0581448 0.998307 0.00149112
vn 0.0590938 0.998252 -0.000513857
vn 0.173648 0.984807 0.00151954
vn 0.176338 0.984329 0.0013816
vn 0.286196 0.958171 -0.000437322
vn 0.381823 0.924235 0.00110609
vn 0.396079 0.918215 0.00174708
vn 0.462584 0.886575 1.23625e-05
vn 0.524666 0.851308 -4.54102e-05
vn 0.573054 0.819517 0.000920372
vn -0.993264 -0.115876 -0
vn -0.940031 -0.34109 -6.50336e-06
vn -0.993277 0.115764 0
vn -0.993277 -0.115764 -0
vn -0.993264 0.115876 0
vn -0.993251 0.115988 6.51575e-06
vn -0.939914 0.34141 -6.50982e-06
vn -0.939798 0.34173 1.32012e-05
vn -0.835724 0.549149 -1.32609e-05
vn -0.835599 0.54934 0
vn -0.686242 0.727374 0
vn -0.5 0.866025 0
vn -0.286803 0.95799 0
vn -0.0581448 0.998308 0
vn 0.173648 0.984808 0
vn 0.39608 0.918216 0
vn 0.597159 0.802123 0
vn 0.766044 0.642788 0
vn 0.893633 0.448799 0
vn 0.973045 0.230616 0
vn 1 0 0
vn 0.973045 -0.230616 0
vn 0.893633 -0.448799 0
vn 0.766044 -0.642788 0
vn 0.597159 -0.802123 0
vn 0.39608 -0.918216 0
vn 0.173648 -0.984808 0
vn -0.0581448 -0.998308 0
vn -0.286803 -0.95799 0
vn -0.5 -0.866025 0
vn -0.686242 -0.727374 0
vn -0.835599 -0.54934 0
vn -0.940031 0.34109 -6.50336e-06
vn -0.993264 0.115876 6.50946e-06
vn -0.939914 0.34141 1.31881e-05
vn -0.83585 0.548959 -1.32867e-05
vn -0.835724 0.549149 0
vn -0.686242 0.727374 0
vn -0.5 0.866025 0
vn -0.286803 0.95799 0
vn -0.0581448 0.998308 0
vn 0.173648 0.984808 0
vn 0.39608 0.918216 0
vn 0.597159 0.802123 0
vn 0.766044 0.642788 0
vn 0.893633 0.448799 0
vn 0.973045 0.230616 0
vn 1 0 0
vn 0.973045 -0.230616 0
vn 0.893633 -0.448799 0
vn 0.766044 -0.642788 0
vn 0.597159 -0.802123 0
vn 0.39608 -0.918216 0
vn 0.173648 -0.984808 0
vn -0.0581448 -0.998308 0
vn -0.286803 -0.95799 0
vn -0.5 -0.866025 0
vn -0.686242 -0.727374 0
vn -0.835724 -0.549149 0
vn -0.835724 -0.549149 -1.32609e-05
vn -0.939798 -0.34173 1.32012e-05
vn -0.939914 -0.34141 1.31881e-05
vn -0.83585 -0.548959 -1.32867e-05
vn -0.939914 -0.34141 -6.50982e-06
vn -0.993251 -0.115988 6.51575e-06
vn -0.991445 -1.71828e-17 0.130526
vn -0.991445 -0 -0.130526
vn -0.92388 -4.13496e-17 -0.382683
vn -0.793353 -4.77827e-17 -0.608761
vn -0.608761 2.38913e-17 -0.793353
vn -0.382683 -5.81404e-18 -0.92388
vn -0.130526 -2.32209e-17 -0.991445
vn 0.130526 -8.52525e-18 -0.991445
vn 0.382683 -4.57753e-17 -0.92388
vn 0.608761 -7.59435e-17 -0.793353
vn 0.793353 -7.26729e-18 -0.608761
vn 0.92388 -2.35167e-17 -0.382683
vn 0.991445 -2.17113e-17 -0.130526
vn 0.991445 -8.52525e-18 0.130526
vn 0.92388 -2.80726e-17 0.382683
vn 0.793353 -2.51631e-17 0.608761
vn 0.608761 -3.96977e-17 0.793353
vn 0.382683 2.80726e-17 0.92388
vn 0.130526 -1.56733e-17 0.991445
vn -0.130526 -8.52525e-18 0.991445
vn -0.382683 -2.3647e-17 0.92388
vn -0.608761 -5.3324e-17 0.793353
vn -0.793353 -4.09695e-17 0.608761
vn -0.92388 1.037e-17 0.382683
vn -0.993235 0.00273107 -0.116092
vn -0.995185 -0 -0.0980171
vn -0.993238 0 0.116093
vn -0.939693 3.9554e-18 0.34202
vn -0.9563 -0.0022873 -0.292378
vn -0.93968 0.00519977 -0.342016
vn -0.880134 -0.00426395 -0.474706
vn -0.835467 0.00713132 -0.549495
vn -0.770281 -0.00552836 -0.637681
vn -0.68622 0.007994 -0.72735
vn -0.631793 -0.00527762 -0.775119
vn -0.499988 0.00691136 -0.866005
vn -0.470454 -0.00226485 -0.882422
vn -0.291016 0.00263787 -0.956714
vn -0.2868 0.00442238 -0.95798
vn -0.0976578 -0.00367714 -0.995213
vn -0.0581418 0.0101391 -0.998257
vn 0.0972395 -0.0079404 -0.995229
vn 0.173634 0.0125635 -0.98473
vn 0.287829 -0.00879684 -0.957641
vn 0.396053 0.0115522 -0.918155
vn 0.468594 -0.0067107 -0.883388
vn 0.597139 0.00817623 -0.802096
vn 0.63285 -0.00313719 -0.774268
vn 0.766039 0.00372852 -0.642783
vn 0.773392 0.000777991 -0.633928
vn 0.881621 -0.00072199 -0.471958
vn 0.893627 0.00368609 -0.448796
vn 0.956135 -0.00287177 -0.292912
vn 0.973034 0.0046751 -0.230613
vn 0.994846 -0.00335892 -0.101343
vn 0.99999 0.00450772 0
vn 0.998308 0 0.0581448
vn 0.973045 0 0.230616
vn 0.893633 0 0.448799
vn 0.766044 0 0.642788
vn 0.597159 0 0.802123
vn 0.39608 3.08135e-17 0.918216
vn 0.173648 -3.35072e-17 0.984808
vn -0.0581448 -4.37083e-18 0.998308
vn -0.286803 2.77318e-17 0.95799
vn -0.5 -3.46945e-17 0.866025
vn -0.686242 1.77753e-17 0.727374
vn -0.835488 2.54199e-17 0.549509
vn -0.939693 -8.6939e-17 0.34202
vn -0.993238 0 0.116093
vn -0.995185 0 -0.0980171
vn -0.993235 -0.00273107 -0.116092
vn -0.9563 0.0022873 -0.292378
vn -0.93968 -0.00519977 -0.342016
vn -0.880134 0.00426395 -0.474706
vn -0.835467 -0.00713132 -0.549495
vn -0.770281 0.00552836 -0.637681
vn -0.68622 -0.007994 -0.72735
vn -0.631793 0.00527762 -0.775119
vn -0.499988 -0.00691136 -0.866005
vn -0.470454 0.00226485 -0.882422
vn -0.291016 -0.00263787 -0.956714
vn 0.99999 -0.00450772 0
vn 0.994846 0.00335892 -0.101343
vn 0.973034 -0.0046751 -0.230613
vn 0.956135 0.00287177 -0.292912
vn 0.893627 -0.00368609 -0.448796
vn 0.881621 0.00072199 -0.471958
vn 0.773392 -0.000777991 -0.633928
vn 0.766039 -0.00372852 -0.642783
vn 0.63285 0.00313719 -0.774268
vn 0.597139 -0.00817623 -0.802096
vn 0.468594 0.0067107 -0.883388
vn 0.396053 -0.0115522 -0.918155
vn 0.287829 0.00879684 -0.957641
vn 0.173634 -0.0125635 -0.98473
vn 0.0972395 0.0079404 -0.995229
vn -0.0581418 -0.0101391 -0.998257
vn -0.0976578 0.00367714 -0.995213
vn -0.2868 -0.00442238 -0.95798
vn 0 -1 0
vn 0 1 0
vn 0 0 -1
f 1//1 2//1 3//1
f 3//2 2//2 4//2
f 3//3 4//3 5//3
f 5//4 4//4 6//4
f 5//5 6//5 7//5
f 7//6 6//6 8//6
f 7//7 8//7 9//7
f 2//1 1//1 10//1
f 10//8 1//8 11//8
f 10//8 11//8 12//8
f 12//9 11//9 13//9
f 12//9 13//9 14//9
f 14//10 13//10 15//10
f 14//10 15//10 16//10
f 16//11 15//11 17//11
f 16//11 17//11 18//11
f 18//12 17//12 19//12
f 18//12 19//12 20//12
f 20//13 19//13 21//13
f 20//13 21//13 22//13
f 22//14 21//14 23//14
f 22//14 23//14 24//14
f 24//15 23//15 25//15
f 24//15 25//15 26//15
f 26//16 25//16 27//16
f 26//16 27//16 28//16
f 28//17 27//17 29//17
f 28//18 29//18 30//18
f 30//19 29//19 31//19
f 30//20 31//20 32//20
f 29//17 27//17 33//17
f 33//21 27//21 34//21
f 33//22 34//22 35//22
f 35//23 34//23 36//23
f 36//24 34//24 37//24
f 36//25 37//25 38//25
f 38//26 37//26 39//26
f 38//27 39//27 40//27
f 40//28 39//28 41//28
f 41//29 39//29 42//29
f 41//30 42//30 43//30
f 43//31 42//31 44//31
f 43//32 44//32 45//32
f 45//33 44//33 46//33
f 46//34 44//34 47//34
f 46//35 47//35 48//35
f 48//36 47//36 49//36
f 48//37 49//37 50//37
f 50//38 49//38 51//38
f 51//39 49//39 52//39
f 51//40 52//40 53//40
f 53//41 52//41 54//41
f 55//42 56//42 57//42
f 57//43 56//43 58//43
f 57//44 58//44 59//44
f 59//44 58//44 60//44
f 56//45 55//45 61//45
f 61//46 55//46 62//46
f 61//47 62//47 63//47
f 63//48 62//48 64//48
f 64//49 62//49 65//49
f 64//50 65//50 66//50
f 66//51 65//51 67//51
f 66//52 67//52 68//52
f 68//53 67//53 69//53
f 69//54 67//54 70//54
f 69//55 70//55 71//55
f 71//56 70//56 72//56
f 71//57 72//57 73//57
f 73//58 72//58 74//58
f 74//59 72//59 75//59
f 74//60 75//60 76//60
f 76//61 75//61 77//61
f 76//62 77//62 78//62
f 78//63 77//63 79//63
f 79//64 77//64 80//64
f 79//65 80//65 81//65
f 81//66 80//66 82//66
f 57//67 59//67 83//67
f 83//67 59//67 62//67
f 62//67 59//67 84//67
f 62//67 84//67 65//67
f 65//67 84//67 85//67
f 65//67 85//67 67//67
f 67//67 85//67 86//67
f 67//67 86//67 70//67
f 70//67 86//67 87//67
f 70//67 87//67 72//67
f 72//67 87//67 88//67
f 72//67 88//67 75//67
f 75//67 88//67 89//67
f 75//67 89//67 77//67
f 77//67 89//67 90//67
f 77//67 90//67 80//67
f 80//67 90//67 91//67
f 80//67 91//67 82//67
f 82//67 91//67 92//67
f 93//68 94//68 95//68
f 95//68 94//68 96//68
f 96//68 94//68 97//68
f 96//68 97//68 98//68
f 98//68 97//68 99//68
f 98//68 99//68 100//68
f 100//68 99//68 101//68
f 100//68 101//68 102//68
f 102//68 101//68 103//68
f 102//68 103//68 104//68
f 104//68 103//68 105//68
f 104//68 105//68 106//68
f 106//68 105//68 107//68
f 106//68 107//68 108//68
f 108//68 107//68 109//68
f 108//68 109//68 110//68
f 110//68 109//68 111//68
f 110//68 111//68 112//68
f 112//68 111//68 113//68
f 114//69 115//69 116//69
f 116//69 115//69 117//69
f 116//69 117//69 118//69
f 116//69 118//69 119//69
f 119//69 118//69 120//69
f 119//69 120//69 121//69
f 121//69 120//69 122//69
f 123//70 124//70 125//70
f 125//71 124//71 126//71
f 125//72 126//72 127//72
f 127//73 126//73 128//73
f 127//74 128//74 129//74
f 129//75 128//75 130//75
f 129//76 130//76 131//76
f 131//77 130//77 132//77
f 131//78 132//78 133//78
f 133//79 132//79 134//79
f 133//80 134//80 135//80
f 135//81 134//81 136//81
f 135//82 136//82 137//82
f 135//83 137//83 138//83
f 138//84 137//84 139//84
f 138//85 139//85 140//85
f 140//86 139//86 141//86
f 140//87 141//87 142//87
f 142//88 141//88 143//88
f 142//89 143//89 144//89
f 144//90 143//90 145//90
f 144//91 145//91 146//91
f 146//92 145//92 147//92
f 146//93 147//93 148//93
f 148//94 147//94 149//94
f 148//95 149//95 150//95
f 148//96 150//96 151//96
f 151//97 150//97 152//97
f 151//98 152//98 153//98
f 153//99 152//99 154//99
f 153//100 154//100 155//100
f 155//101 154//101 156//101
f 155//102 156//102 157//102
f 157//103 156//103 158//103
f 157//104 158//104 159//104
f 159//105 158//105 160//105
f 159//106 160//106 161//106
f 159//107 161//107 162//107
f 162//108 161//108 163//108
f 162//109 163//109 164//109
f 164//110 163//110 165//110
f 164//111 165//111 166//111
f 166//112 165//112 167//112
f 166//113 167//113 168//113
f 168//114 167//114 169//114
f 168//115 169//115 170//115
f 170//116 169//116 171//116
f 170//117 171//117 172//117
f 172//118 171//118 173//118
f 172//119 173//119 174//119
f 172//120 174//120 175//120
f 175//121 174//121 176//121
f 175//122 176//122 177//122
f 177//123 176//123 178//123
f 177//124 178//124 179//124
f 179//125 178//125 180//125
f 179//126 180//126 181//126
f 181//127 180//127 182//127
f 181//128 182//128 183//128
f 184//129 185//129 186//129
f 186//130 185//130 187//130
f 186//131 187//131 188//131
f 188//132 187//132 189//132
f 188//133 189//133 190//133
f 190//134 189//134 191//134
f 190//135 191//135 192//135
f 192//136 191//136 193//136
f 192//137 193//137 194//137
f 194//138 193//138 195//138
f 194//139 195//139 196//139
f 196//140 195//140 197//140
f 196//141 197//141 198//141
f 198//142 197//142 199//142
f 198//143 199//143 200//143
f 200//144 199//144 201//144
f 200//145 201//145 202//145
f 202//146 201//146 203//146
f 203//147 201//147 204//147
f 203//148 204//148 205//148
f 205//149 204//149 206//149
f 206//150 204//150 207//150
f 207//151 204//151 208//151
f 207//152 208//152 209//152
f 209//153 208//153 210//153
f 210//154 208//154 211//154
f 211//155 208//155 212//155
f 211//156 212//156 213//156
f 213//157 212//157 214//157
f 213//158 214//158 215//158
f 215//159 214//159 216//159
f 216//160 214//160 217//160
f 217//161 214//161 218//161
f 217//162 218//162 219//162
f 219//163 218//163 220//163
f 220//164 218//164 221//164
f 220//165 221//165 222//165
f 222//166 221//166 223//166
f 223//167 221//167 224//167
f 224//168 221//168 225//168
f 224//169 225//169 226//169
f 226//170 225//170 227//170
f 226//171 227//171 228//171
f 228//172 227//172 229//172
f 228//173 229//173 230//173
f 230//174 229//174 231//174
f 230//175 231//175 232//175
f 232//176 231//176 233//176
f 233//177 231//177 234//177
f 233//178 234//178 235//178
f 235//179 234//179 236//179
f 235//180 236//180 237//180
f 237//181 236//181 238//181
f 237//182 238//182 239//182
f 239//183 238//183 240//183
f 239//184 240//184 241//184
f 241//185 240//185 242//185
f 242//186 240//186 243//186
f 243//187 240//187 244//187
f 243//188 244//188 245//188
f 245//189 244//189 246//189
f 246//190 244//190 247//190
f 247//191 244//191 248//191
f 247//192 248//192 249//192
f 249//193 248//193 250//193
f 250//194 248//194 251//194
f 250//195 251//195 252//195
f 252//196 251//196 253//196
f 252//197 253//197 254//197
f 254//198 253//198 255//198
f 255//199 253//199 256//199
f 256//200 253//200 257//200
f 256//201 257//201 258//201
f 258//202 257//202 259//202
f 259//203 257//203 260//203
f 261//204 262//204 263//204
f 263//204 262//204 264//204
f 263//205 264//205 265//205
f 266//206 267//206 262//206
f 262//207 267//207 264//207
f 262//208 261//208 268//208
f 268//209 261//209 269//209
f 268//210 269//210 270//210
f 270//211 269//211 271//211
f 270//212 271//212 272//212
f 272//213 271//213 273//213
f 272//214 273//214 274//214
f 274//214 273//214 275//214
f 274//215 275//215 276//215
f 276//215 275//215 277//215
f 276//216 277//216 278//216
f 278//216 277//216 279//216
f 278//217 279//217 280//217
f 280//217 279//217 281//217
f 280//218 281//218 282//218
f 282//218 281//218 283//218
f 282//219 283//219 284//219
f 284//219 283//219 285//219
f 284//220 285//220 286//220
f 286//220 285//220 287//220
f 286//221 287//221 288//221
f 288//221 287//221 289//221
f 288//222 289//222 290//222
f 290//222 289//222 291//222
f 290//223 291//223 292//223
f 292//223 291//223 293//223
f 292//224 293//224 294//224
f 294//224 293//224 295//224
f 294//225 295//225 296//225
f 296//225 295//225 297//225
f 296//226 297//226 298//226
f 298//226 297//226 299//226
f 298//227 299//227 300//227
f 300//227 299//227 301//227
f 300//228 301//228 302//228
f 302//228 301//228 303//228
f 302//229 303//229 304//229
f 304//229 303//229 305//229
f 304//230 305//230 306//230
f 306//230 305//230 307//230
f 306//231 307//231 308//231
f 308//231 307//231 309//231
f 308//232 309//232 310//232
f 310//232 309//232 311//232
f 310//233 311//233 312//233
f 312//233 311//233 313//233
f 312//234 313//234 314//234
f 314//234 313//234 315//234
f 314//235 315//235 316//235
f 317//236 318//236 319//236
f 319//237 318//237 320//237
f 317//238 319//238 321//238
f 322//239 317//239 321//239
f 322//240 321//240 323//240
f 324//241 322//241 323//241
f 324//241 323//241 325//241
f 326//242 324//242 325//242
f 326//242 325//242 327//242
f 328//243 326//243 327//243
f 328//243 327//243 329//243
f 330//244 328//244 329//244
f 330//244 329//244 331//244
f 332//245 330//245 331//245
f 332//245 331//245 333//245
f 334//246 332//246 333//246
f 334//246 333//246 335//246
f 336//247 334//247 335//247
f 336//247 335//247 337//247
f 338//248 336//248 337//248
f 338//248 337//248 339//248
f 340//249 338//249 339//249
f 340//249 339//249 341//249
f 342//250 340//250 341//250
f 342//250 341//250 343//250
f 344//251 342//251 343//251
f 344//251 343//251 345//251
f 346//252 344//252 345//252
f 346//252 345//252 347//252
f 348//253 346//253 347//253
f 348//253 347//253 349//253
f 350//254 348//254 349//254
f 350//254 349//254 351//254
f 352//255 350//255 351//255
f 352//255 351//255 353//255
f 354//256 352//256 353//256
f 354//256 353//256 355//256
f 356//257 354//257 355//257
f 356//257 355//257 357//257
f 358//258 356//258 357//258
f 358//258 357//258 359//258
f 360//259 358//259 359//259
f 360//259 359//259 361//259
f 362//260 360//260 361//260
f 362//260 361//260 363//260
f 364//261 362//261 363//261
f 364//261 363//261 365//261
f 364//262 365//262 366//262
f 366//263 365//263 367//263
f 366//264 367//264 368//264
f 369//265 370//265 366//265
f 366//266 370//266 364//266
f 369//267 366//267 368//267
f 371//268 369//268 368//268
f 372//269 373//269 374//269
f 374//269 373//269 375//269
f 374//270 375//270 376//270
f 376//270 375//270 377//270
f 376//271 377//271 378//271
f 378//271 377//271 379//271
f 378//272 379//272 380//272
f 380//272 379//272 381//272
f 380//273 381//273 382//273
f 382//273 381//273 383//273
f 382//274 383//274 384//274
f 384//274 383//274 385//274
f 384//275 385//275 386//275
f 386//275 385//275 387//275
f 386//276 387//276 388//276
f 388//276 387//276 389//276
f 388//277 389//277 390//277
f 390//277 389//277 391//277
f 390//278 391//278 392//278
f 392//278 391//278 393//278
f 392//279 393//279 394//279
f 394//279 393//279 395//279
f 394//280 395//280 396//280
f 396//280 395//280 397//280
f 396//281 397//281 398//281
f 398//281 397//281 399//281
f 398//282 399//282 400//282
f 400//282 399//282 401//282
f 400//283 401//283 402//283
f 402//283 401//283 403//283
f 402//284 403//284 404//284
f 404//284 403//284 405//284
f 404//285 405//285 406//285
f 406//285 405//285 407//285
f 406//286 407//286 408//286
f 408//286 407//286 409//286
f 408//287 409//287 410//287
f 410//287 409//287 411//287
f 410//288 411//288 412//288
f 412//288 411//288 413//288
f 412//289 413//289 414//289
f 414//289 413//289 415//289
f 414//290 415//290 416//290
f 416//290 415//290 417//290
f 416//291 417//291 418//291
f 418//291 417//291 419//291
f 418//292 419//292 420//292
f 420//292 419//292 421//292
f 422//293 423//293 424//293
f 424//294 423//294 425//294
f 424//295 425//295 426//295
f 426//295 425//295 427//295
f 426//296 427//296 428//296
f 423//297 422//297 429//297
f 429//298 422//298 430//298
f 429//299 430//299 431//299
f 431//300 430//300 432//300
f 431//301 432//301 433//301
f 433//302 432//302 434//302
f 433//303 434//303 435//303
f 435//304 434//304 436//304
f 435//305 436//305 437//305
f 437//306 436//306 438//306
f 438//307 436//307 439//307
f 438//308 439//308 440//308
f 440//309 439//309 441//309
f 440//310 441//310 442//310
f 442//311 441//311 443//311
f 442//312 443//312 444//312
f 444//313 443//313 445//313
f 444//314 445//314 446//314
f 446//315 445//315 447//315
f 446//316 447//316 448//316
f 448//317 447//317 449//317
f 448//318 449//318 450//318
f 450//319 449//319 451//319
f 451//320 449//320 452//320
f 451//321 452//321 453//321
f 453//322 452//322 454//322
f 453//323 454//323 455//323
f 455//324 454//324 456//324
f 455//325 456//325 457//325
f 457//326 456//326 458//326
f 457//326 458//326 459//326
f 459//327 458//327 460//327
f 459//327 460//327 461//327
f 461//328 460//328 462//328
f 461//328 462//328 463//328
f 463//329 462//329 464//329
f 463//329 464//329 465//329
f 465//330 464//330 466//330
f 465//330 466//330 467//330
f 467//331 466//331 468//331
f 467//331 468//331 469//331
f 469//332 468//332 470//332
f 469//332 470//332 471//332
f 471//333 470//333 472//333
f 471//333 472//333 473//333
f 473//334 472//334 474//334
f 473//334 474//334 475//334
f 475//335 474//335 476//335
f 475//335 476//335 477//335
f 477//336 476//336 478//336
f 477//336 478//336 479//336
f 479//337 478//337 480//337
f 481//338 482//338 483//338
f 483//339 482//339 484//339
f 483//340 484//340 485//340
f 485//341 484//341 486//341
f 485//342 486//342 487//342
f 487//343 486//343 488//343
f 487//344 488//344 489//344
f 489//345 488//345 490//345
f 489//346 490//346 491//346
f 491//347 490//347 492//347
f 491//348 492//348 493//348
f 493//349 492//349 494//349
f 493//350 494//350 495//350
f 496//351 497//351 498//351
f 498//352 497//352 499//352
f 499//353 497//353 500//353
f 499//354 500//354 501//354
f 501//355 500//355 502//355
f 501//356 502//356 503//356
f 503//357 502//357 504//357
f 504//358 502//358 505//358
f 504//359 505//359 506//359
f 506//360 505//360 507//360
f 506//361 507//361 508//361
f 508//362 507//362 509//362
f 508//363 509//363 510//363
f 510//364 509//364 511//364
f 510//365 511//365 512//365
f 512//366 511//366 513//366
f 512//367 513//367 495//367
f 495//368 513//368 493//368
f 514//369 497//369 515//369
f 515//369 497//369 496//369
f 515//369 496//369 516//369
f 516//369 496//369 517//369
f 516//369 517//369 518//369
f 518//369 517//369 519//369
f 518//369 519//369 520//369
f 520//369 519//369 521//369
f 520//369 521//369 522//369
f 522//369 521//369 523//369
f 522//369 523//369 524//369
f 525//369 514//369 500//369
f 500//369 514//369 526//369
f 500//369 526//369 502//369
f 502//369 526//369 527//369
f 502//369 527//369 505//369
f 505//369 527//369 528//369
f 505//369 528//369 507//369
f 507//369 528//369 509//369
f 509//369 528//369 529//369
f 509//369 529//369 511//369
f 511//369 529//369 530//369
f 511//369 530//369 513//369
f 513//369 530//369 531//369
f 513//369 531//369 532//369
f 532//369 531//369 533//369
f 532//369 533//369 534//369
f 534//369 533//369 535//369
f 534//369 535//369 536//369
f 536//369 535//369 537//369
f 536//369 537//369 538//369
f 538//369 537//369 539//369
f 538//369 539//369 540//369
f 540//369 539//369 541//369
f 540//369 541//369 542//369
f 542//369 541//369 543//369
f 543//369 541//369 544//369
f 543//369 544//369 545//369
f 545//369 544//369 546//369
f 545//369 546//369 547//369
f 547//369 546//369 548//369
f 547//369 548//369 549//369
f 549//369 548//369 550//369
f 549//369 550//369 551//369
f 551//369 550//369 552//369
f 551//369 552//369 553//369
f 553//369 552//369 554//369
f 553//369 554//369 555//369
f 555//369 554//369 556//369
f 555//369 556//369 557//369
f 557//369 556//369 558//369
f 559//370 560//370 561//370
f 561//370 560//370 562//370
f 561//370 562//370 563//370
f 563//370 562//370 564//370
f 563//370 564//370 565//370
f 565//370 564//370 566//370
f 565//370 566//370 567//370
f 567//370 566//370 568//370
f 567//370 568//370 569//370
f 569//370 568//370 570//370
f 569//370 570//370 571//370
f 560//370 559//370 572//370
f 572//370 559//370 573//370
f 572//370 573//370 574//370
f 574//370 573//370 575//370
f 574//370 575//370 576//370
f 576//370 575//370 577//370
f 576//370 577//370 578//370
f 578//370 577//370 579//370
f 579//370 577//370 580//370
f 579//370 580//370 581//370
f 581//370 580//370 582//370
f 581//370 582//370 583//370
f 583//370 582//370 584//370
f 583//370 584//370 585//370
f 585//370 584//370 586//370
f 585//370 586//370 587//370
f 587//370 586//370 588//370
f 587//370 588//370 589//370
f 589//370 588//370 590//370
f 589//370 590//370 591//370
f 591//370 590//370 592//370
f 591//370 592//370 593//370
f 593//370 592//370 594//370
f 593//370 594//370 595//370
f 595//370 594//370 596//370
f 596//370 594//370 597//370
f 596//370 597//370 598//370
f 598//370 597//370 599//370
f 598//370 599//370 600//370
f 600//370 599//370 601//370
f 600//370 601//370 602//370
f 602//370 601//370 603//370
f 602//370 603//370 604//370
f 604//370 603//370 605//370
f 604//370 605//370 606//370
f 606//370 605//370 607//370
f 606//370 607//370 608//370
f 608//370 607//370 609//370
f 608//370 609//370 610//370
f 610//370 609//370 611//370
f 612//371 613//371 614//371
f 614//371 613//371 615//371
f 615//371 613//371 616//371
f 616//371 613//371 617//371
f 616//371 617//371 618//371
f 618//371 617//371 619//371
f 618//371 619//371 620//371
