g 0
v -0.0145641 0.0375 -0.30359
v -0.015 0.02 -0.3
v -0.015 0.0375 -0.3
v -0.014709 0.020215 -0.29706
v -0.0145641 0.0375 -0.29641
v -0.013836 0.0208222 -0.294206
v -0.0132818 0.0375 -0.293029
v -0.0124348 0.0216859 -0.291617
v -0.0112277 0.0375 -0.290053
v -0.0106319 0.0226266 -0.289419
v -0.00852097 0.0375 -0.287655
v -0.00843562 0.0235318 -0.287601
v -0.00582921 0.0243109 -0.286179
v -0.0132818 0.0375 -0.306971
v -0.0132818 -0.0375 -0.306971
v -0.0145641 -0.0375 -0.30359
v -0.015 -0.02 -0.3
v -0.015 -0.0375 -0.3
v -0.014709 -0.020215 -0.29706
v -0.0145641 -0.0375 -0.29641
v -0.013836 -0.0208222 -0.294206
v -0.0132818 -0.0375 -0.293029
v -0.0124348 -0.0216859 -0.291617
v -0.0112277 -0.0375 -0.290053
v -0.0106319 -0.0226266 -0.289419
v -0.00852097 -0.0375 -0.287655
v -0.00843562 -0.0235318 -0.287601
v -0.00582921 -0.0243109 -0.286179
v -0.00531907 -0.0375 -0.285975
v -0.00295206 -0.0248251 -0.285293
v -0.00180805 -0.0375 -0.285109
v -1.61908e-19 -0.025 -0.285
v 0.00180805 -0.0375 -0.285109
v 0.00295206 -0.0248251 -0.285293
v 0.00531907 -0.0375 -0.285975
v 0.00582921 -0.0243109 -0.286179
v 0.00852097 -0.0375 -0.287655
v 0.00843562 -0.0235318 -0.287601
v 0.0106319 -0.0226266 -0.289419
v 0.0112277 -0.0375 -0.290053
v 0.0124348 -0.0216859 -0.291617
v 0.0132818 -0.0375 -0.293029
v 0.013836 -0.0208222 -0.294206
v 0.0145641 -0.0375 -0.29641
v 0.014709 -0.020215 -0.29706
v 0.015 -0.0375 -0.3
v 0.015 -0.02 -0.3
v 0.0145641 -0.0375 -0.30359
v 0.0145641 0.0375 -0.30359
v 0.0132818 0.0375 -0.306971
v 0.0132818 -0.0375 -0.306971
v 0.0112277 0.0375 -0.309947
v 0.0112277 -0.0375 -0.309947
v 0.00852097 0.0375 -0.312345
v 0.00852097 -0.0375 -0.312345
v 0.00531907 0.0375 -0.314025
v 0.00531907 -0.0375 -0.314025
v 0.00180805 0.0375 -0.314891
v 0.00180805 -0.0375 -0.314891
v -0.00180805 0.0375 -0.314891
v -0.00180805 -0.0375 -0.314891
v -0.00531907 0.0375 -0.314025
v -0.00531907 -0.0375 -0.314025
v -0.00852097 0.0375 -0.312345
v -0.00852097 -0.0375 -0.312345
v -0.0112277 0.0375 -0.309947
v -0.0112277 -0.0375 -0.309947
v -0.0132818 0.0375 -0.306971
v -0.0132818 -0.0375 -0.306971
v 0.015 0.02 -0.3
v 0.015 0.0375 -0.3
v 0.014709 0.020215 -0.29706
v 0.0145641 0.0375 -0.29641
v 0.013836 0.0208222 -0.294206
v 0.0132818 0.0375 -0.293029
v 0.0124348 0.0216859 -0.291617
v 0.0112277 0.0375 -0.290053
v 0.0106319 0.0226266 -0.289419
v 0.00852097 0.0375 -0.287655
v 0.00843562 0.0235318 -0.287601
v 0.00582921 0.0243109 -0.286179
v 0.00531907 0.0375 -0.285975
v 0.00295206 0.0248251 -0.285293
v 0.00180805 0.0375 -0.285109
v -2.31296e-19 0.025 -0.285
v -0.00180805 0.0375 -0.285109
v -0.00295206 0.0248251 -0.285293
v -0.00531907 0.0375 -0.285975
v -0.00582921 0.0243109 -0.286179
v -0.00852097 0.0375 -0.287655
v -0.015 -0.0375 -0.3
v -0.0145641 -0.0375 -0.30359
v -0.0145641 -0.0375 -0.29641
v -0.0132818 -0.0375 -0.293029
v -0.0112277 -0.0375 -0.290053
v -0.0112277 -0.0375 -0.309947
v -0.00852097 -0.0375 -0.287655
v -0.00852097 -0.0375 -0.312345
v -0.00531907 -0.0375 -0.285975
v -0.00531907 -0.0375 -0.314025
v -0.00180805 -0.0375 -0.285109
v -0.00180805 -0.0375 -0.314891
v 0.00180805 -0.0375 -0.285109
v 0.00180805 -0.0375 -0.314891
v 0.00531907 -0.0375 -0.285975
v 0.00531907 -0.0375 -0.314025
v 0.00852097 -0.0375 -0.287655
v 0.00852097 -0.0375 -0.312345
v 0.0112277 -0.0375 -0.290053
v 0.0112277 -0.0375 -0.309947
v 0.0132818 -0.0375 -0.293029
v 0.0132818 -0.0375 -0.306971
v 0.0145641 -0.0375 -0.29641
v 0.0145641 -0.0375 -0.30359
v 0.015 -0.0375 -0.3
v -0.015 0.0375 -0.3
v -0.0145641 0.0375 -0.29641
v -0.0145641 0.0375 -0.30359
v -0.0132818 0.0375 -0.306971
v -0.0132818 0.0375 -0.293029
v -0.0112277 0.0375 -0.309947
v -0.0112277 0.0375 -0.290053
v -0.00852097 0.0375 -0.312345
v -0.00852097 0.0375 -0.287655
v -0.00531907 0.0375 -0.314025
v -0.00531907 0.0375 -0.285975
v -0.00180805 0.0375 -0.314891
v -0.00180805 0.0375 -0.285109
v 0.00180805 0.0375 -0.314891
v 0.00180805 0.0375 -0.285109
v 0.00531907 0.0375 -0.314025
v 0.00531907 0.0375 -0.285975
v 0.00852097 0.0375 -0.312345
v 0.00852097 0.0375 -0.287655
v 0.0112277 0.0375 -0.309947
v 0.0112277 0.0375 -0.290053
v 0.0132818 0.0375 -0.306971
v 0.0132818 0.0375 -0.293029
v 0.0145641 0.0375 -0.30359
v 0.0145641 0.0375 -0.29641
v 0.015 0.0375 -0.3
v -0.015 0.02 -0.3
v -0.015 -0.02 -0.3
v -0.0184307 0.0168911 -0.3
v -0.0184307 -0.0168911 -0.3
v -0.0212293 -0.0132028 -0.3
v -0.0212293 0.0132028 -0.3
v -0.0232999 -0.00906178 -0.3
v -0.0232999 0.00906178 -0.3
v -0.0245713 -0.00460994 -0.3
v -0.0245713 0.00460994 -0.3
v -0.025 3.06162e-18 -0.3
v -0.0245743 -0.00459374 -0.05
v -0.025 3.06162e-18 -0.05
v -0.025 -3.06162e-18 -0.1
v -0.0245743 0.00459374 -0.05
v -0.0245737 0.00459698 -0.1
v -0.0233118 0.00903104 -0.05
v -0.0233094 0.00903719 -0.1
v -0.0212554 0.0131608 -0.05
v -0.0212554 0.0131608 -0.1
v -0.0184752 0.0168424 -0.1
v -0.0184752 0.0168424 -0.2
v -0.0150659 0.0199504 -0.2
v -0.014709 0.020215 -0.29706
v -0.013836 0.0208222 -0.294206
v -0.0124348 0.0216859 -0.291617
v -0.0111435 0.0223791 -0.2
v -0.0106319 0.0226266 -0.289419
v -0.00843562 0.0235318 -0.287601
v -0.00684157 0.0240456 -0.2
v -0.00582921 0.0243109 -0.286179
v -0.00230671 0.0248934 -0.2
v -0.00295206 0.0248251 -0.285293
v -2.31296e-19 0.025 -0.285
v 0.00230671 0.0248934 -0.2
v 0.00295206 0.0248251 -0.285293
v 0.00582921 0.0243109 -0.286179
v 0.00684157 0.0240456 -0.2
v 0.00843562 0.0235318 -0.287601
v 0.0111435 0.0223791 -0.2
v 0.0106319 0.0226266 -0.289419
v 0.0124348 0.0216859 -0.291617
v 0.013836 0.0208222 -0.294206
v 0.0150659 0.0199504 -0.2
v 0.014709 0.020215 -0.29706
v 0.015 0.02 -0.3
v 0.0184307 0.0168911 -0.3
v 0.0184752 0.0168424 -0.2
v 0.0212293 0.0132028 -0.3
v 0.0212554 0.0131608 -0.2
v 0.0232999 0.00906178 -0.3
v 0.0233047 0.00904949 -0.2
v 0.0245713 0.00460994 -0.3
v 0.0245725 0.00460346 -0.2
v 0.025 -6.12323e-18 -0.3
v 0.025 -3.67394e-18 -0.2
v 0.0245725 -0.00460346 -0.2
v 0.0245737 -0.00459698 -0.1
v 0.0233094 -0.00903719 -0.1
v 0.0233118 -0.00903104 -0.05
v 0.0212554 -0.0131608 -0.05
v -0.0212554 0.0131608 -0.05
v -0.0184752 0.0168424 -0.05
v -0.0184752 0.0168424 -0.1
v -0.0150659 0.0199504 -0.1
v -0.0150659 0.0199504 -0.2
v -0.0111435 0.0223791 -0.2
v -0.0150659 0.0199504 -0.05
v -0.0111435 0.0223791 -0.1
v -0.00684157 0.0240456 -0.2
v -0.0111435 0.0223791 -0.05
v -0.00684157 0.0240456 -0.1
v -0.00230671 0.0248934 -0.2
v -0.00684157 0.0240456 -0.05
v -0.00230671 0.0248934 -0.1
v 0.00230671 0.0248934 -0.2
v -0.00230671 0.0248934 -0.05
v 0.00230671 0.0248934 -0.1
v 0.00684157 0.0240456 -0.2
v 0.00230671 0.0248934 -0.05
v 0.00684157 0.0240456 -0.1
v 0.0111435 0.0223791 -0.2
v 0.00684157 0.0240456 -0.05
v 0.0111435 0.0223791 -0.1
v 0.0150659 0.0199504 -0.2
v 0.0111435 0.0223791 -0.05
v 0.0150659 0.0199504 -0.1
v 0.0184752 0.0168424 -0.2
v 0.0150659 0.0199504 -0.05
v 0.0184752 0.0168424 -0.1
v 0.0212554 0.0131608 -0.2
v 0.0184752 0.0168424 -0.05
v 0.0212554 0.0131608 -0.1
v 0.0233047 0.00904949 -0.2
v 0.0212554 0.0131608 -0.05
v 0.0233094 0.00903719 -0.1
v 0.0245725 0.00460346 -0.2
v 0.0233118 0.00903104 -0.05
v 0.0245737 0.00459698 -0.1
v 0.025 -3.67394e-18 -0.2
v 0.0245743 0.00459374 -0.05
v 0.025 -1.22465e-18 -0.1
v 0.0245737 -0.00459698 -0.1
v 0.025 0 -0.05
v 0.0245743 -0.00459374 -0.05
v 0.0233118 -0.00903104 -0.05
v 0.0184752 -0.0168424 -0.05
v 0.0184752 -0.0168424 -0.1
v 0.0212554 -0.0131608 -0.05
v 0.0212554 -0.0131608 -0.1
v 0.0233094 -0.00903719 -0.1
v 0.0233047 -0.00904949 -0.2
v 0.0245725 -0.00460346 -0.2
v 0.0245713 -0.00460994 -0.3
v 0.025 -6.12323e-18 -0.3
v 0.0150659 -0.0199504 -0.1
v 0.0150659 -0.0199504 -0.05
v 0.0111435 -0.0223791 -0.1
v 0.0111435 -0.0223791 -0.05
v 0.00684157 -0.0240456 -0.1
v 0.00684157 -0.0240456 -0.05
v 0.00230671 -0.0248934 -0.1
v 0.00230671 -0.0248934 -0.05
v -0.00230671 -0.0248934 -0.1
v -0.00230671 -0.0248934 -0.05
v -0.00684157 -0.0240456 -0.1
v -0.00684157 -0.0240456 -0.05
v -0.0111435 -0.0223791 -0.1
v -0.0111435 -0.0223791 -0.05
v -0.0150659 -0.0199504 -0.1
v -0.0150659 -0.0199504 -0.05
v -0.0184752 -0.0168424 -0.1
v -0.0184752 -0.0168424 -0.05
v -0.0212554 -0.0131608 -0.1
v -0.0212554 -0.0131608 -0.05
v -0.0233094 -0.00903719 -0.1
v -0.0233118 -0.00903104 -0.05
v -0.0245737 -0.00459698 -0.1
v -0.0245743 -0.00459374 -0.05
v -0.025 -3.06162e-18 -0.1
v -0.0184307 0.0168911 -0.3
v -0.0212293 0.0132028 -0.3
v -0.0184752 0.0168424 -0.2
v -0.0212554 0.0131608 -0.2
v -0.0212554 0.0131608 -0.1
v -0.0233047 0.00904949 -0.2
v -0.0233094 0.00903719 -0.1
v -0.0245725 0.00460346 -0.2
v -0.0245737 0.00459698 -0.1
v -0.025 -3.06162e-18 -0.2
v -0.0232999 0.00906178 -0.3
v -0.0245713 0.00460994 -0.3
v -0.025 3.06162e-18 -0.3
v -0.0245725 -0.00460346 -0.2
v -0.0245713 -0.00460994 -0.3
v -0.0233047 -0.00904949 -0.2
v -0.0232999 -0.00906178 -0.3
v -0.0212554 -0.0131608 -0.2
v -0.0212293 -0.0132028 -0.3
v -0.0184752 -0.0168424 -0.2
v -0.0184307 -0.0168911 -0.3
v -0.0150659 -0.0199504 -0.2
v -0.015 -0.02 -0.3
v -0.014709 -0.020215 -0.29706
v -0.013836 -0.0208222 -0.294206
v -0.0111435 -0.0223791 -0.2
v -0.0111435 -0.0223791 -0.1
v -0.00684157 -0.0240456 -0.1
v -0.0124348 -0.0216859 -0.291617
v -0.0106319 -0.0226266 -0.289419
v -0.00843562 -0.0235318 -0.287601
v -0.00684157 -0.0240456 -0.2
v -0.00582921 -0.0243109 -0.286179
v -0.00230671 -0.0248934 -0.2
v -0.00295206 -0.0248251 -0.285293
v -1.61908e-19 -0.025 -0.285
v 0.00230671 -0.0248934 -0.2
v 0.00295206 -0.0248251 -0.285293
v 0.00582921 -0.0243109 -0.286179
v 0.00684157 -0.0240456 -0.2
v 0.00843562 -0.0235318 -0.287601
v 0.0111435 -0.0223791 -0.2
v 0.0106319 -0.0226266 -0.289419
v 0.0124348 -0.0216859 -0.291617
v 0.0150659 -0.0199504 -0.2
v 0.013836 -0.0208222 -0.294206
v 0.014709 -0.020215 -0.29706
v 0.015 -0.02 -0.3
v 0.0184307 -0.0168911 -0.3
v 0.0184752 -0.0168424 -0.2
v 0.0212293 -0.0132028 -0.3
v 0.0212554 -0.0131608 -0.2
v 0.0232999 -0.00906178 -0.3
v 0.0233047 -0.00904949 -0.2
v 0.0245713 -0.00460994 -0.3
v -0.0245737 -0.00459698 -0.1
v -0.025 -3.06162e-18 -0.2
v -0.0245725 -0.00460346 -0.2
v 0.0212554 -0.0131608 -0.1
v 0.0184752 -0.0168424 -0.1
v 0.0150659 -0.0199504 -0.1
v 0.0111435 -0.0223791 -0.1
v 0.00684157 -0.0240456 -0.1
v 0.00230671 -0.0248934 -0.1
v -0.00230671 -0.0248934 -0.2
v 0.00230671 -0.0248934 -0.2
v -0.00230671 -0.0248934 -0.1
v -0.00684157 -0.0240456 -0.2
v -0.00684157 -0.0240456 -0.1
v -0.0111435 -0.0223791 -0.2
v -0.0150659 -0.0199504 -0.2
v -0.0111435 -0.0223791 -0.1
v -0.0150659 -0.0199504 -0.1
v -0.0184752 -0.0168424 -0.2
v -0.0184752 -0.0168424 -0.1
v -0.0212554 -0.0131608 -0.2
v -0.0212554 -0.0131608 -0.1
v -0.0233047 -0.00904949 -0.2
v -0.0233094 -0.00903719 -0.1
v -0.025 3.06162e-18 -0.05
v -0.0245743 -0.00459374 -0.05
v -0.0245743 0.00459374 -0.05
v -0.0233118 0.00903104 -0.05
v -0.0233118 -0.00903104 -0.05
v -0.0212554 0.0131608 -0.05
v -0.0212554 -0.0131608 -0.05
v -0.0184752 0.0168424 -0.05
v -0.0184752 -0.0168424 -0.05
v -0.0150659 0.0199504 -0.05
v -0.0150659 -0.0199504 -0.05
v -0.0111435 0.0223791 -0.05
v -0.0111435 -0.0223791 -0.05
v -0.00684157 0.0240456 -0.05
v -0.00684157 -0.0240456 -0.05
v -0.00230671 0.0248934 -0.05
v -0.00230671 -0.0248934 -0.05
v 0.00230671 0.0248934 -0.05
v 0.00230671 -0.0248934 -0.05
v 0.00684157 0.0240456 -0.05
v 0.00684157 -0.0240456 -0.05
v 0.0111435 0.0223791 -0.05
v 0.0111435 -0.0223791 -0.05
v 0.0150659 0.0199504 -0.05
v 0.0150659 -0.0199504 -0.05
v 0.0184752 0.0168424 -0.05
v 0.0184752 -0.0168424 -0.05
v 0.0212554 0.0131608 -0.05
v 0.0212554 -0.0131608 -0.05
v 0.0233118 0.00903104 -0.05
v 0.0233118 -0.00903104 -0.05
v 0.0245743 0.00459374 -0.05
v 0.0245743 -0.00459374 -0.05
v 0.025 0 -0.05
v 0.015 0.02 -0.3
v 0.0184307 0.0168911 -0.3
v 0.015 -0.02 -0.3
v 0.0184307 -0.0168911 -0.3
v 0.0212293 -0.0132028 -0.3
v 0.0212293 0.0132028 -0.3
v 0.0232999 -0.00906178 -0.3
v 0.0232999 0.00906178 -0.3
v 0.0245713 -0.00460994 -0.3
v 0.0245713 0.00460994 -0.3
v 0.025 -6.12323e-18 -0.3
vn -0.992709 -9.7042e-17 -0.120537
vn -0.995138 -9.86451e-17 0.0984896
vn -0.992702 0.00379125 0.120536
vn -0.956058 -0.0030016 0.293163
vn -0.934999 0.00603596 0.354598
vn -0.878876 -0.00447129 0.47703
vn -0.822966 0.00665268 0.568052
vn -0.772367 -0.00384554 0.635165
vn -0.663113 0.00536465 0.7485
vn -0.637348 -0.000909557 0.770575
vn -0.479081 0.000472825 0.87777
vn -0.935016 1.08133e-16 -0.354605
vn -0.992702 -0.00379125 0.120536
vn -0.956058 0.0030016 0.293163
vn -0.934999 -0.00603596 0.354598
vn -0.878876 0.00447129 0.47703
vn -0.822966 -0.00665268 0.568052
vn -0.772367 0.00384554 0.635165
vn -0.663113 -0.00536465 0.7485
vn -0.637348 0.000909557 0.770575
vn -0.479081 -0.000472825 0.87777
vn -0.464719 -0.00426343 0.885448
vn -0.29363 0.00344518 0.955913
vn -0.239309 -0.0075056 0.970914
vn -0.0985595 0.00554942 0.995116
vn 0 -0.00874902 0.999962
vn 0.0985595 0.00554942 0.995116
vn 0.239309 -0.0075056 0.970914
vn 0.29363 0.00344518 0.955913
vn 0.464719 -0.00426343 0.885448
vn 0.479081 -0.000472825 0.87777
vn 0.637348 0.000909557 0.770575
vn 0.663113 -0.00536465 0.7485
vn 0.772367 0.00384554 0.635165
vn 0.822966 -0.00665268 0.568052
vn 0.878876 0.00447129 0.47703
vn 0.934999 -0.00603596 0.354598
vn 0.956058 0.0030016 0.293163
vn 0.992702 -0.00379125 0.120536
vn 0.995138 9.82883e-17 0.0984896
vn 0.992709 9.84043e-17 -0.120537
vn 0.935016 -2.16266e-17 -0.354605
vn 0.822984 0 -0.568065
vn 0.663123 -4.60134e-17 -0.748511
vn 0.464723 0 -0.885456
vn 0.239316 0 -0.970942
vn 0 0 -1
vn -0.239316 4.15146e-17 -0.970942
vn -0.464723 -0 -0.885456
vn -0.663123 -0 -0.748511
vn -0.822984 -0 -0.568065
vn 0.992702 0.00379125 0.120536
vn 0.956058 -0.0030016 0.293163
vn 0.934999 0.00603596 0.354598
vn 0.878876 -0.00447129 0.47703
vn 0.822966 0.00665268 0.568052
vn 0.772367 -0.00384554 0.635165
vn 0.663113 0.00536465 0.7485
vn 0.637348 -0.000909557 0.770575
vn 0.479081 0.000472825 0.87777
vn 0.464719 0.00426343 0.885448
vn 0.29363 -0.00344518 0.955913
vn 0.239309 0.0075056 0.970914
vn 0.0985595 -0.00554942 0.995116
vn 0 0.00874902 0.999962
vn -0.0985595 -0.00554942 0.995116
vn -0.239309 0.0075056 0.970914
vn -0.29363 -0.00344518 0.955913
vn -0.464719 0.00426343 0.885448
vn 0 -1 0
vn 0 1 0
vn 0 0 -1
vn -0.995734 -0.0922684 1.28521e-17
vn -0.995734 0.0922684 -1.12996e-17
vn -0.995728 0.092334 -6.08487e-06
vn -0.961826 0.273663 6.08054e-06
vn -0.961771 0.273853 -1.21611e-05
vn -0.895163 0.445738 1.21524e-05
vn -0.895104 0.445856 0
vn -0.798017 0.602635 0
vn -0.673696 0.739009 0
vn -0.673696 0.739009 5.99826e-05
vn -0.6715 0.741005 -7.49782e-05
vn -0.594243 0.804286 7.27526e-06
vn -0.571329 0.820721 0.000136324
vn -0.526068 0.850442 0.00100226
vn -0.526432 0.850217 0.000987532
vn -0.462389 0.886677 -0.000190995
vn -0.381308 0.924448 0.000377405
vn -0.361241 0.932472 0.00110327
vn -0.286208 0.958167 -0.000412816
vn -0.183749 0.982973 0.000867147
vn -0.176089 0.984374 0.000544544
vn -0.0591099 0.998251 -0.000351649
vn 7.51688e-16 0.999999 0.00125465
vn 0.0591099 0.998251 -0.000351649
vn 0.176089 0.984374 0.000544544
vn 0.183749 0.982973 0.000867147
vn 0.286208 0.958167 -0.000412816
vn 0.361241 0.932472 0.00110327
vn 0.381308 0.924448 0.000377405
vn 0.462389 0.886677 -0.000190995
vn 0.526038 0.85046 0.000980138
vn 0.526432 0.850217 0.000995419
vn 0.571329 0.820721 0.000136324
vn 0.594243 0.804286 7.27526e-06
vn 0.6715 0.741005 -7.49782e-05
vn 0.673696 0.739009 5.99826e-05
vn 0.796624 0.604475 -6.01991e-05
vn 0.798017 0.602635 4.51493e-05
vn 0.894427 0.447214 -4.53118e-05
vn 0.894987 0.446093 1.20831e-05
vn 0.961554 0.274614 -1.21784e-05
vn 0.961663 0.274234 6.0892e-06
vn 0.995704 0.0925967 -6.09787e-06
vn 0.995716 0.0924654 -2.26475e-18
vn 0.995716 -0.0924654 2.26475e-18
vn 0.961771 -0.273853 6.08054e-06
vn 0.961771 -0.273853 -1.21611e-05
vn 0.895163 -0.445738 1.21524e-05
vn -0.798017 0.602635 0
vn -0.673696 0.739009 0
vn -0.526432 0.850217 0
vn -0.361242 0.932472 0
vn -0.18375 0.982973 0
vn 7.52034e-16 1 0
vn 0.18375 0.982973 0
vn 0.361242 0.932472 0
vn 0.526432 0.850217 0
vn 0.673696 0.739009 0
vn 0.798017 0.602635 0
vn 0.894987 0.446093 0
vn 0.895104 0.445856 0
vn 0.895104 0.445856 1.21178e-05
vn 0.961663 0.274234 -1.21611e-05
vn 0.895163 0.445738 1.21524e-05
vn 0.961771 0.273853 -1.21611e-05
vn 0.961771 0.273853 6.08054e-06
vn 0.995716 0.0924654 -6.0892e-06
vn 0.961826 0.273663 6.08054e-06
vn 0.995728 0.092334 -6.08487e-06
vn 0.995728 -0.092334 2.26153e-18
vn 0.995734 0.0922684 -1.83602e-18
vn 0.995734 -0.0922684 2.25992e-18
vn 0.961826 -0.273663 6.08054e-06
vn 0.798017 -0.602635 0
vn 0.895104 -0.445856 -1.54688e-17
vn 0.895104 -0.445856 1.21178e-05
vn 0.961663 -0.274234 -1.21611e-05
vn 0.961663 -0.274234 6.0892e-06
vn 0.995704 -0.0925967 -6.09787e-06
vn 0.673696 -0.739009 0
vn 0.526432 -0.850217 3.65286e-17
vn 0.361242 -0.932472 0
vn 0.18375 -0.982973 0
vn 0 -1 0
vn -0.18375 -0.982973 0
vn -0.361242 -0.932472 0
vn -0.526432 -0.850217 0
vn -0.673696 -0.739009 0
vn -0.798017 -0.602635 0
vn -0.895104 -0.445856 0
vn -0.895163 -0.445738 1.21524e-05
vn -0.961771 -0.273853 -1.21611e-05
vn -0.961826 -0.273663 6.08054e-06
vn -0.995728 -0.092334 -6.08487e-06
vn -0.796624 0.604475 -6.01991e-05
vn -0.798017 0.602635 4.51493e-05
vn -0.798017 0.602635 0
vn -0.894987 0.446093 0
vn -0.895104 0.445856 1.21178e-05
vn -0.961663 0.274234 -1.21611e-05
vn -0.961771 0.273853 6.08054e-06
vn -0.995716 0.0924654 -6.0892e-06
vn -0.995728 0.092334 0
vn -0.894427 0.447214 -4.53118e-05
vn -0.894987 0.446093 1.20831e-05
vn -0.961554 0.274614 -1.21784e-05
vn -0.961663 0.274234 6.0892e-06
vn -0.995704 0.0925967 -6.09787e-06
vn -0.995716 -0.0924654 -5.66187e-18
vn -0.995704 -0.0925967 -6.09787e-06
vn -0.961663 -0.274234 6.0892e-06
vn -0.961554 -0.274614 -1.21784e-05
vn -0.894987 -0.446093 1.20831e-05
vn -0.894427 -0.447214 -4.53118e-05
vn -0.798017 -0.602635 4.51493e-05
vn -0.796624 -0.604475 -6.01991e-05
vn -0.673696 -0.739009 5.99826e-05
vn -0.6715 -0.741005 -7.49782e-05
vn -0.594243 -0.804286 7.27526e-06
vn -0.571329 -0.820721 0.000136324
vn -0.526432 -0.850217 0.000995419
vn -0.526432 -0.850217 0
vn -0.361242 -0.932472 -0
vn -0.526038 -0.85046 0.000980138
vn -0.462389 -0.886677 -0.000190995
vn -0.381308 -0.924448 0.000377405
vn -0.361241 -0.932472 0.00110327
vn -0.286208 -0.958167 -0.000412816
vn -0.183749 -0.982973 0.000867147
vn -0.176089 -0.984374 0.000544544
vn -0.0591099 -0.998251 -0.000351649
vn 0 -0.999999 0.00125465
vn 0.0591099 -0.998251 -0.000351649
vn 0.176089 -0.984374 0.000544544
vn 0.183749 -0.982973 0.000867147
vn 0.286208 -0.958167 -0.000412816
vn 0.361241 -0.932472 0.00110327
vn 0.381308 -0.924448 0.000377405
vn 0.462389 -0.886677 -0.000190995
vn 0.526432 -0.850217 0.000987532
vn 0.526068 -0.850442 0.00100226
vn 0.571329 -0.820721 0.000136324
vn 0.594243 -0.804286 7.27526e-06
vn 0.6715 -0.741005 -7.49782e-05
vn 0.673696 -0.739009 5.99826e-05
vn 0.796624 -0.604475 -6.01991e-05
vn 0.798017 -0.602635 4.51493e-05
vn 0.894427 -0.447214 -4.53118e-05
vn 0.894987 -0.446093 1.20831e-05
vn 0.961554 -0.274614 -1.21784e-05
vn -0.995716 -0.0924654 -6.0892e-06
vn 0.894987 -0.446093 0
vn 0.798017 -0.602635 0
vn 0.673696 -0.739009 0
vn 0.526432 -0.850217 0
vn 0.361242 -0.932472 0
vn 0.18375 -0.982973 0
vn 0 -1 0
vn -0.18375 -0.982973 0
vn -0.361242 -0.932472 0
vn -0.526432 -0.850217 0
vn -0.673696 -0.739009 0
vn -0.798017 -0.602635 0
vn -0.894987 -0.446093 0
vn -0.895104 -0.445856 1.21178e-05
vn -0.961663 -0.274234 -1.21611e-05
vn -0.961771 -0.273853 6.08054e-06
vn 0 0 1
vn 0 0 -1
f 1//1 2//1 3//1
f 3//2 2//2 4//2
f 3//3 4//3 5//3
f 5//4 4//4 6//4
f 5//5 6//5 7//5
f 7//6 6//6 8//6
f 7//7 8//7 9//7
f 9//8 8//8 10//8
f 9//9 10//9 11//9
f 11//10 10//10 12//10
f 11//11 12//11 13//11
f 14//12 15//12 1//12
f 1//12 15//12 16//12
f 1//1 16//1 2//1
f 2//1 16//1 17//1
f 17//1 16//1 18//1
f 17//2 18//2 19//2
f 19//13 18//13 20//13
f 19//14 20//14 21//14
f 21//15 20//15 22//15
f 21//16 22//16 23//16
f 23//17 22//17 24//17
f 23//18 24//18 25//18
f 25//19 24//19 26//19
f 25//20 26//20 27//20
f 27//21 26//21 28//21
f 28//22 26//22 29//22
f 28//23 29//23 30//23
f 30//24 29//24 31//24
f 30//25 31//25 32//25
f 32//26 31//26 33//26
f 32//27 33//27 34//27
f 34//28 33//28 35//28
f 34//29 35//29 36//29
f 36//30 35//30 37//30
f 36//31 37//31 38//31
f 38//32 37//32 39//32
f 39//33 37//33 40//33
f 39//34 40//34 41//34
f 41//35 40//35 42//35
f 41//36 42//36 43//36
f 43//37 42//37 44//37
f 43//38 44//38 45//38
f 45//39 44//39 46//39
f 45//40 46//40 47//40
f 47//41 46//41 48//41
f 47//41 48//41 49//41
f 49//42 48//42 50//42
f 50//42 48//42 51//42
f 50//43 51//43 52//43
f 52//43 51//43 53//43
f 52//44 53//44 54//44
f 54//44 53//44 55//44
f 54//45 55//45 56//45
f 56//45 55//45 57//45
f 56//46 57//46 58//46
f 58//46 57//46 59//46
f 58//47 59//47 60//47
f 60//47 59//47 61//47
f 60//48 61//48 62//48
f 62//48 61//48 63//48
f 62//49 63//49 64//49
f 64//49 63//49 65//49
f 64//50 65//50 66//50
f 66//50 65//50 67//50
f 66//51 67//51 68//51
f 68//51 67//51 69//51
f 47//41 49//41 70//41
f 70//41 49//41 71//41
f 70//40 71//40 72//40
f 72//52 71//52 73//52
f 72//53 73//53 74//53
f 74//54 73//54 75//54
f 74//55 75//55 76//55
f 76//56 75//56 77//56
f 76//57 77//57 78//57
f 78//58 77//58 79//58
f 78//59 79//59 80//59
f 80//60 79//60 81//60
f 81//61 79//61 82//61
f 81//62 82//62 83//62
f 83//63 82//63 84//63
f 83//64 84//64 85//64
f 85//65 84//65 86//65
f 85//66 86//66 87//66
f 87//67 86//67 88//67
f 87//68 88//68 89//68
f 89//69 88//69 90//69
f 91//70 92//70 93//70
f 93//70 92//70 94//70
f 94//70 92//70 69//70
f 94//70 69//70 95//70
f 95//70 69//70 96//70
f 95//70 96//70 97//70
f 97//70 96//70 98//70
f 97//70 98//70 99//70
f 99//70 98//70 100//70
f 99//70 100//70 101//70
f 101//70 100//70 102//70
f 101//70 102//70 103//70
f 103//70 102//70 104//70
f 103//70 104//70 105//70
f 105//70 104//70 106//70
f 105//70 106//70 107//70
f 107//70 106//70 108//70
f 107//70 108//70 109//70
f 109//70 108//70 110//70
f 109//70 110//70 111//70
f 111//70 110//70 112//70
f 111//70 112//70 113//70
f 113//70 112//70 114//70
f 113//70 114//70 115//70
f 116//71 117//71 118//71
f 118//71 117//71 119//71
f 119//71 117//71 120//71
f 119//71 120//71 121//71
f 121//71 120//71 122//71
f 121//71 122//71 123//71
f 123//71 122//71 124//71
f 123//71 124//71 125//71
f 125//71 124//71 126//71
f 125//71 126//71 127//71
f 127//71 126//71 128//71
f 127//71 128//71 129//71
f 129//71 128//71 130//71
f 129//71 130//71 131//71
f 131//71 130//71 132//71
f 131//71 132//71 133//71
f 133//71 132//71 134//71
f 133//71 134//71 135//71
f 135//71 134//71 136//71
f 135//71 136//71 137//71
f 137//71 136//71 138//71
f 137//71 138//71 139//71
f 139//71 138//71 140//71
f 139//71 140//71 141//71
f 142//72 143//72 144//72
f 144//72 143//72 145//72
f 144//72 145//72 146//72
f 144//72 146//72 147//72
f 147//72 146//72 148//72
f 147//72 148//72 149//72
f 149//72 148//72 150//72
f 149//72 150//72 151//72
f 151//72 150//72 152//72
f 153//73 154//73 155//73
f 155//74 154//74 156//74
f 155//75 156//75 157//75
f 157//76 156//76 158//76
f 157//77 158//77 159//77
f 159//78 158//78 160//78
f 159//79 160//79 161//79
f 161//80 160//80 162//80
f 161//80 162//80 163//80
f 163//81 162//81 164//81
f 163//82 164//82 144//82
f 144//83 164//83 142//83
f 142//84 164//84 165//84
f 165//85 164//85 166//85
f 166//86 164//86 167//86
f 167//87 164//87 168//87
f 167//88 168//88 169//88
f 169//89 168//89 170//89
f 170//90 168//90 171//90
f 170//91 171//91 172//91
f 172//92 171//92 173//92
f 172//93 173//93 174//93
f 174//94 173//94 175//94
f 175//95 173//95 176//95
f 175//96 176//96 177//96
f 177//97 176//97 178//97
f 178//98 176//98 179//98
f 178//99 179//99 180//99
f 180//100 179//100 181//100
f 180//101 181//101 182//101
f 182//102 181//102 183//102
f 183//103 181//103 184//103
f 184//104 181//104 185//104
f 184//105 185//105 186//105
f 186//106 185//106 187//106
f 187//107 185//107 188//107
f 188//108 185//108 189//108
f 188//109 189//109 190//109
f 190//110 189//110 191//110
f 190//111 191//111 192//111
f 192//112 191//112 193//112
f 192//113 193//113 194//113
f 194//114 193//114 195//114
f 194//115 195//115 196//115
f 196//116 195//116 197//116
f 196//117 197//117 198//117
f 198//117 197//117 199//117
f 198//118 199//118 200//118
f 200//119 199//119 201//119
f 200//120 201//120 202//120
f 203//121 204//121 205//121
f 205//122 204//122 206//122
f 205//122 206//122 207//122
f 207//123 206//123 208//123
f 204//122 209//122 206//122
f 206//123 209//123 210//123
f 206//123 210//123 208//123
f 208//124 210//124 211//124
f 209//123 212//123 210//123
f 210//124 212//124 213//124
f 210//124 213//124 211//124
f 211//125 213//125 214//125
f 212//124 215//124 213//124
f 213//125 215//125 216//125
f 213//125 216//125 214//125
f 214//126 216//126 217//126
f 215//125 218//125 216//125
f 216//126 218//126 219//126
f 216//126 219//126 217//126
f 217//127 219//127 220//127
f 218//126 221//126 219//126
f 219//127 221//127 222//127
f 219//127 222//127 220//127
f 220//128 222//128 223//128
f 221//127 224//127 222//127
f 222//128 224//128 225//128
f 222//128 225//128 223//128
f 223//129 225//129 226//129
f 224//128 227//128 225//128
f 225//129 227//129 228//129
f 225//129 228//129 226//129
f 226//130 228//130 229//130
f 227//129 230//129 228//129
f 228//130 230//130 231//130
f 228//130 231//130 229//130
f 229//131 231//131 232//131
f 230//130 233//130 231//130
f 231//131 233//131 234//131
f 231//131 234//131 232//131
f 232//132 234//132 235//132
f 233//131 236//131 234//131
f 234//133 236//133 237//133
f 234//134 237//134 235//134
f 235//135 237//135 238//135
f 236//136 239//136 237//136
f 237//137 239//137 240//137
f 237//138 240//138 238//138
f 238//139 240//139 241//139
f 239//140 242//140 240//140
f 240//141 242//141 243//141
f 240//141 243//141 241//141
f 241//142 243//142 244//142
f 242//143 245//143 243//143
f 243//144 245//144 246//144
f 243//142 246//142 244//142
f 244//145 246//145 247//145
f 248//146 249//146 250//146
f 250//146 249//146 251//146
f 250//147 251//147 252//147
f 252//148 251//148 253//148
f 252//149 253//149 254//149
f 254//150 253//150 255//150
f 254//151 255//151 256//151
f 249//152 248//152 257//152
f 257//152 248//152 258//152
f 257//153 258//153 259//153
f 259//153 258//153 260//153
f 259//154 260//154 261//154
f 261//154 260//154 262//154
f 261//155 262//155 263//155
f 263//155 262//155 264//155
f 263//156 264//156 265//156
f 265//156 264//156 266//156
f 265//157 266//157 267//157
f 267//157 266//157 268//157
f 267//158 268//158 269//158
f 269//158 268//158 270//158
f 269//159 270//159 271//159
f 271//159 270//159 272//159
f 271//160 272//160 273//160
f 273//160 272//160 274//160
f 273//161 274//161 275//161
f 275//161 274//161 276//161
f 275//162 276//162 277//162
f 277//163 276//163 278//163
f 277//164 278//164 279//164
f 279//165 278//165 280//165
f 279//166 280//166 281//166
f 282//167 283//167 284//167
f 284//168 283//168 285//168
f 284//169 285//169 286//169
f 286//170 285//170 287//170
f 286//171 287//171 288//171
f 288//172 287//172 289//172
f 288//173 289//173 290//173
f 290//174 289//174 291//174
f 290//175 291//175 281//175
f 281//166 291//166 279//166
f 283//176 292//176 285//176
f 285//177 292//177 287//177
f 292//178 293//178 287//178
f 287//179 293//179 289//179
f 293//180 294//180 289//180
f 289//174 294//174 291//174
f 291//181 294//181 295//181
f 295//182 294//182 296//182
f 295//183 296//183 297//183
f 297//184 296//184 298//184
f 297//185 298//185 299//185
f 299//186 298//186 300//186
f 299//187 300//187 301//187
f 301//188 300//188 302//188
f 301//189 302//189 303//189
f 303//190 302//190 304//190
f 303//191 304//191 305//191
f 305//192 306//192 303//192
f 303//193 306//193 307//193
f 303//194 307//194 308//194
f 308//195 307//195 309//195
f 306//196 310//196 307//196
f 307//197 310//197 311//197
f 307//198 311//198 312//198
f 307//199 312//199 313//199
f 313//200 312//200 314//200
f 313//201 314//201 315//201
f 315//202 314//202 316//202
f 315//203 316//203 317//203
f 315//204 317//204 318//204
f 318//205 317//205 319//205
f 318//206 319//206 320//206
f 318//207 320//207 321//207
f 321//208 320//208 322//208
f 321//209 322//209 323//209
f 323//210 322//210 324//210
f 323//211 324//211 325//211
f 323//212 325//212 326//212
f 326//213 325//213 327//213
f 326//214 327//214 328//214
f 328//215 329//215 326//215
f 326//216 329//216 330//216
f 326//217 330//217 331//217
f 331//218 330//218 332//218
f 331//219 332//219 333//219
f 333//220 332//220 334//220
f 333//221 334//221 335//221
f 335//222 334//222 336//222
f 337//223 338//223 339//223
f 333//224 335//224 340//224
f 331//225 333//225 340//225
f 331//225 340//225 341//225
f 326//226 331//226 341//226
f 326//226 341//226 342//226
f 323//227 326//227 342//227
f 323//227 342//227 343//227
f 321//228 323//228 343//228
f 321//228 343//228 344//228
f 318//229 321//229 344//229
f 318//229 344//229 345//229
f 346//230 347//230 345//230
f 346//230 345//230 348//230
f 349//231 346//231 348//231
f 349//231 348//231 350//231
f 351//232 349//232 350//232
f 352//233 353//233 354//233
f 355//234 352//234 354//234
f 355//234 354//234 356//234
f 357//235 355//235 356//235
f 357//235 356//235 358//235
f 359//236 357//236 358//236
f 359//237 358//237 360//237
f 339//238 359//238 360//238
f 339//239 360//239 337//239
f 361//240 362//240 363//240
f 363//240 362//240 364//240
f 364//240 362//240 365//240
f 364//240 365//240 366//240
f 366//240 365//240 367//240
f 366//240 367//240 368//240
f 368//240 367//240 369//240
f 368//240 369//240 370//240
f 370//240 369//240 371//240
f 370//240 371//240 372//240
f 372//240 371//240 373//240
f 372//240 373//240 374//240
f 374//240 373//240 375//240
f 374//240 375//240 376//240
f 376//240 375//240 377//240
f 376//240 377//240 378//240
f 378//240 377//240 379//240
f 378//240 379//240 380//240
f 380//240 379//240 381//240
f 380//240 381//240 382//240
f 382//240 381//240 383//240
f 382//240 383//240 384//240
f 384//240 383//240 385//240
f 384//240 385//240 386//240
f 386//240 385//240 387//240
f 386//240 387//240 388//240
f 388//240 387//240 389//240
f 388//240 389//240 390//240
f 390//240 389//240 391//240
f 390//240 391//240 392//240
f 392//240 391//240 393//240
f 392//240 393//240 394//240
f 395//241 396//241 397//241
f 397//241 396//241 398//241
f 398//241 396//241 399//241
f 399//241 396//241 400//241
f 399//241 400//241 401//241
f 401//241 400//241 402//241
f 401//241 402//241 403//241
f 403//241 402//241 404//241
f 403//241 404//241 405//241
