g 0
v -0.0147118 0.0375 -0.202926
v -0.015 0.02 -0.2
v -0.015 0.0375 -0.2
v -0.0149277 0.0200542 -0.198532
v -0.0147118 0.0375 -0.197074
v -0.014709 0.020215 -0.19706
v -0.014343 0.0204764 -0.19561
v -0.0138582 0.0375 -0.20574
v -0.0138582 0 -0.20574
v -0.0147118 0 -0.202926
v -0.015 -0.02 -0.2
v -0.0147118 -0.0375 -0.202926
v -0.015 -0.0375 -0.2
v -0.012472 0 -0.208334
v -0.012472 0.0375 -0.208334
v -0.0106066 0 -0.210607
v -0.0106066 0.0375 -0.210607
v -0.00833355 0 -0.212472
v -0.00833355 0.0375 -0.212472
v -0.00574025 0 -0.213858
v -0.00574025 0.0375 -0.213858
v -0.00292635 0 -0.214712
v -0.00292635 0.0375 -0.214712
v 2.41218e-18 0 -0.215
v 2.75546e-18 0.0375 -0.215
v 0.00292635 0 -0.214712
v 0.00292635 0.0375 -0.214712
v 0.00574025 0 -0.213858
v 0.00574025 0.0375 -0.213858
v 0.00833355 0 -0.212472
v 0.00833355 0.0375 -0.212472
v 0.0106066 0 -0.210607
v 0.0106066 0.0375 -0.210607
v 0.012472 0 -0.208334
v 0.012472 0.0375 -0.208334
v 0.0138582 0 -0.20574
v 0.0138582 0.0375 -0.20574
v 0.0147118 0 -0.202926
v 0.0147118 0.0375 -0.202926
v 0.015 0.02 -0.2
v 0.015 0.0375 -0.2
v 0.0149277 0.0200542 -0.198532
v 0.0147118 0.0375 -0.197074
v 0.014709 0.020215 -0.19706
v 0.014343 0.0204764 -0.19561
v 0.0138582 0.0375 -0.19426
v 0.013836 0.0208222 -0.194206
v 0.0131951 0.021233 -0.19287
v 0.012472 0.0375 -0.191666
v 0.0124348 0.0216859 -0.191617
v 0.0106066 0.0375 -0.189393
v 0.0106319 0.0226266 -0.189419
v 0.00843562 0.0235318 -0.187601
v 0.00833355 0.0375 -0.187528
v 0.00717585 0.0239468 -0.18683
v 0.00574025 0.0375 -0.186142
v 0.00582921 0.0243109 -0.186179
v 0.00441327 0.0246072 -0.185664
v 0.00292635 0.0375 -0.185288
v 0.00295206 0.0248251 -0.185293
v 0.0014715 0.0249564 -0.185073
v -9.18485e-19 0.0375 -0.185
v -4.51028e-18 0.025 -0.185
v -0.0014715 0.0249564 -0.185073
v -0.00292635 0.0375 -0.185288
v -0.00295206 0.0248251 -0.185293
v -0.00441327 0.0246072 -0.185664
v -0.00574025 0.0375 -0.186142
v -0.00582921 0.0243109 -0.186179
v -0.00717585 0.0239468 -0.18683
v -0.00833355 0.0375 -0.187528
v -0.00843562 0.0235318 -0.187601
v -0.0106066 0.0375 -0.189393
v -0.0106319 0.0226266 -0.189419
v -0.012472 0.0375 -0.191666
v -0.0124348 0.0216859 -0.191617
v -0.0131951 0.021233 -0.19287
v -0.0138582 0.0375 -0.19426
v -0.013836 0.0208222 -0.194206
v -0.014343 0.0204764 -0.19561
v -0.0147118 0.0375 -0.197074
v -0.015 -0.02 -0.2
v -0.015 -0.0375 -0.2
v -0.0149277 -0.0200542 -0.198532
v -0.0147118 -0.0375 -0.197074
v -0.014709 -0.020215 -0.19706
v -0.014343 -0.0204764 -0.19561
v -0.0138582 -0.0375 -0.19426
v -0.013836 -0.0208222 -0.194206
v -0.0131951 -0.021233 -0.19287
v -0.012472 -0.0375 -0.191666
v -0.0124348 -0.0216859 -0.191617
v -0.0106319 -0.0226266 -0.189419
v -0.0106066 -0.0375 -0.189393
v -0.00843562 -0.0235318 -0.187601
v -0.00833355 -0.0375 -0.187528
v -0.00717585 -0.0239468 -0.18683
v -0.00574025 -0.0375 -0.186142
v -0.00582921 -0.0243109 -0.186179
v -0.00441327 -0.0246072 -0.185664
v -0.00292635 -0.0375 -0.185288
v -0.00295206 -0.0248251 -0.185293
v -0.0014715 -0.0249564 -0.185073
v -9.18485e-19 -0.0375 -0.185
v -2.31296e-19 -0.025 -0.185
v 0.0014715 -0.0249564 -0.185073
v 0.00292635 -0.0375 -0.185288
v 0.00295206 -0.0248251 -0.185293
v 0.00441327 -0.0246072 -0.185664
v 0.00574025 -0.0375 -0.186142
v 0.00582921 -0.0243109 -0.186179
v 0.00717585 -0.0239468 -0.18683
v 0.00833355 -0.0375 -0.187528
v 0.00843562 -0.0235318 -0.187601
v 0.0106066 -0.0375 -0.189393
v 0.0106319 -0.0226266 -0.189419
v 0.0124348 -0.0216859 -0.191617
v 0.012472 -0.0375 -0.191666
v 0.0131951 -0.021233 -0.19287
v 0.0138582 -0.0375 -0.19426
v 0.013836 -0.0208222 -0.194206
v 0.014343 -0.0204764 -0.19561
v 0.0147118 -0.0375 -0.197074
v 0.014709 -0.020215 -0.19706
v 0.0149277 -0.0200542 -0.198532
v 0.015 -0.0375 -0.2
v 0.015 -0.02 -0.2
v 0.0147118 -0.0375 -0.202926
v 0.0147118 0 -0.202926
v 0.0138582 0 -0.20574
v 0.0138582 -0.0375 -0.20574
v 0.012472 0 -0.208334
v 0.012472 -0.0375 -0.208334
v 0.0106066 0 -0.210607
v 0.0106066 -0.0375 -0.210607
v 0.00833355 0 -0.212472
v 0.00833355 -0.0375 -0.212472
v 0.00574025 0 -0.213858
v 0.00574025 -0.0375 -0.213858
v 0.00292635 0 -0.214712
v 0.00292635 -0.0375 -0.214712
v 2.41218e-18 0 -0.215
v 2.75546e-18 -0.0375 -0.215
v -0.00292635 0 -0.214712
v -0.00292635 -0.0375 -0.214712
v -0.00574025 0 -0.213858
v -0.00574025 -0.0375 -0.213858
v -0.00833355 0 -0.212472
v -0.00833355 -0.0375 -0.212472
v -0.0106066 0 -0.210607
v -0.0106066 -0.0375 -0.210607
v -0.012472 0 -0.208334
v -0.012472 -0.0375 -0.208334
v -0.0138582 0 -0.20574
v -0.0138582 -0.0375 -0.20574
v -0.0147118 0 -0.202926
v -0.0147118 -0.0375 -0.202926
v 0.015 0.02 -0.2
v 0.015 -0.02 -0.2
v 0.0147118 0 -0.202926
v -0.015 -0.0375 -0.2
v -0.0147118 -0.0375 -0.197074
v -0.0138582 -0.0375 -0.19426
v -0.012472 -0.0375 -0.191666
v -0.0106066 -0.0375 -0.189393
v -0.00833355 -0.0375 -0.187528
v -0.00574025 -0.0375 -0.186142
v -0.00292635 -0.0375 -0.185288
v -9.18485e-19 -0.0375 -0.185
v 0.00292635 -0.0375 -0.185288
v 2.75546e-18 -0.0375 -0.215
v 0.00292635 -0.0375 -0.214712
v 0.00574025 -0.0375 -0.186142
v 0.00574025 -0.0375 -0.213858
v 0.00833355 -0.0375 -0.187528
v 0.00833355 -0.0375 -0.212472
v 0.0106066 -0.0375 -0.189393
v 0.0106066 -0.0375 -0.210607
v 0.012472 -0.0375 -0.191666
v 0.012472 -0.0375 -0.208334
v 0.0138582 -0.0375 -0.19426
v 0.0138582 -0.0375 -0.20574
v 0.0147118 -0.0375 -0.197074
v 0.0147118 -0.0375 -0.202926
v 0.015 -0.0375 -0.2
v -0.015 0.0375 -0.2
v -0.0147118 0.0375 -0.197074
v -0.0147118 0.0375 -0.202926
v -0.0138582 0.0375 -0.20574
v -0.0138582 0.0375 -0.19426
v -0.012472 0.0375 -0.208334
v -0.012472 0.0375 -0.191666
v -0.0106066 0.0375 -0.210607
v -0.0106066 0.0375 -0.189393
v -0.00833355 0.0375 -0.212472
v -0.00833355 0.0375 -0.187528
v -0.00574025 0.0375 -0.213858
v -0.00574025 0.0375 -0.186142
v -0.00292635 0.0375 -0.214712
v -0.00292635 0.0375 -0.185288
v 2.75546e-18 0.0375 -0.215
v -9.18485e-19 0.0375 -0.185
v 0.00292635 0.0375 -0.214712
v 0.00292635 0.0375 -0.185288
v 0.00574025 0.0375 -0.213858
v 0.00574025 0.0375 -0.186142
v 0.00833355 0.0375 -0.212472
v 0.00833355 0.0375 -0.187528
v 0.0106066 0.0375 -0.210607
v 0.0106066 0.0375 -0.189393
v 0.012472 0.0375 -0.208334
v 0.012472 0.0375 -0.191666
v 0.0138582 0.0375 -0.20574
v 0.0138582 0.0375 -0.19426
v 0.0147118 0.0375 -0.202926
v 0.0147118 0.0375 -0.197074
v 0.015 0.0375 -0.2
v -0.015 0.02 -0.2
v -0.015 -0.02 -0.2
v -0.0178999 0.0174526 -0.2
v -0.0178999 -0.0174526 -0.2
v -0.0203731 -0.0144892 -0.2
v -0.0203731 0.0144892 -0.2
v -0.0223607 -0.0111803 -0.2
v -0.0223607 0.0111803 -0.2
v -0.0238152 -0.007605 -0.2
v -0.0238152 0.007605 -0.2
v -0.024702 -0.00384837 -0.2
v -0.024702 0.00384837 -0.2
v -0.025 3.06162e-18 -0.2
v -0.024707 -0.00381623 -0.05
v -0.025 3.06162e-18 -0.05
v -0.025 -3.06162e-18 -0.0666667
v -0.024707 0.00381623 -0.05
v -0.0247065 0.0038198 -0.0666667
v -0.0238349 0.00754301 -0.05
v -0.0238349 0.00754301 -0.0666667
v -0.0224041 0.011093 -0.0666667
v -0.0224041 0.011093 -0.133333
v -0.0204482 0.014383 -0.133333
v -0.018013 0.0173358 -0.133333
v -0.0151556 0.0198823 -0.133333
v -0.0149277 0.0200542 -0.198532
v -0.014709 0.020215 -0.19706
v -0.014343 0.0204764 -0.19561
v -0.013836 0.0208222 -0.194206
v -0.0131951 0.021233 -0.19287
v -0.011943 0.0219628 -0.133333
v -0.0124348 0.0216859 -0.191617
v -0.0106319 0.0226266 -0.189419
v -0.00844185 0.0235316 -0.133333
v -0.00843562 0.0235318 -0.187601
v -0.00717585 0.0239468 -0.18683
v -0.00475978 0.0245427 -0.133333
v -0.00582921 0.0243109 -0.186179
v -0.00441327 0.0246072 -0.185664
v -0.00295206 0.0248251 -0.185293
v -0.000957568 0.0249817 -0.133333
v -0.0014715 0.0249564 -0.185073
v -4.51028e-18 0.025 -0.185
v 0.0014715 0.0249564 -0.185073
v 0.00286709 0.0248351 -0.133333
v 0.00295206 0.0248251 -0.185293
v 0.00441327 0.0246072 -0.185664
v 0.00662454 0.0241063 -0.133333
v 0.00582921 0.0243109 -0.186179
v 0.00717585 0.0239468 -0.18683
v 0.00843562 0.0235318 -0.187601
v 0.0102267 0.0228126 -0.133333
v 0.0106319 0.0226266 -0.189419
v 0.0124348 0.0216859 -0.191617
v 0.0135892 0.0209841 -0.133333
v 0.0131951 0.021233 -0.19287
v 0.013836 0.0208222 -0.194206
v 0.014343 0.0204764 -0.19561
v 0.014709 0.020215 -0.19706
v 0.0149277 0.0200542 -0.198532
v 0.015 0.02 -0.2
v 0.0166331 0.0186638 -0.133333
v 0.0178999 0.0174526 -0.2
v 0.0192872 0.0159061 -0.133333
v 0.0203731 0.0144892 -0.2
v 0.0214892 0.0127755 -0.133333
v 0.0223607 0.0111803 -0.2
v 0.0231876 0.00934543 -0.133333
v 0.0238152 0.007605 -0.2
v 0.0243424 0.00569634 -0.133333
v 0.024702 0.00384837 -0.2
v 0.0249266 0.00191373 -0.133333
v 0.025 -6.12323e-18 -0.2
v 0.0249266 -0.00191373 -0.133333
v 0.024702 -0.00384837 -0.2
v 0.0243424 -0.00569634 -0.133333
v 0.0238152 -0.007605 -0.2
v 0.0231876 -0.00934543 -0.133333
v 0.0223607 -0.0111803 -0.2
v 0.0214892 -0.0127755 -0.133333
v 0.0203731 -0.0144892 -0.2
v 0.0192872 -0.0159061 -0.133333
v 0.0178999 -0.0174526 -0.2
v 0.0166331 -0.0186638 -0.133333
v 0.015 -0.02 -0.2
v 0.0149277 -0.0200542 -0.198532
v 0.014709 -0.020215 -0.19706
v 0.0135892 -0.0209841 -0.133333
v 0.014343 -0.0204764 -0.19561
v 0.013836 -0.0208222 -0.194206
v 0.0131951 -0.021233 -0.19287
v 0.0124348 -0.0216859 -0.191617
v 0.0102267 -0.0228126 -0.133333
v 0.0106319 -0.0226266 -0.189419
v 0.00843562 -0.0235318 -0.187601
v 0.00662454 -0.0241063 -0.133333
v 0.00717585 -0.0239468 -0.18683
v 0.00582921 -0.0243109 -0.186179
v 0.00441327 -0.0246072 -0.185664
v 0.00286709 -0.0248351 -0.133333
v 0.00295206 -0.0248251 -0.185293
v 0.0014715 -0.0249564 -0.185073
v -0.000957568 -0.0249817 -0.133333
v -2.31296e-19 -0.025 -0.185
v -0.0014715 -0.0249564 -0.185073
v -0.00295206 -0.0248251 -0.185293
v -0.00475978 -0.0245427 -0.133333
v -0.00441327 -0.0246072 -0.185664
v -0.00582921 -0.0243109 -0.186179
v -0.00717585 -0.0239468 -0.18683
v -0.00844185 -0.0235316 -0.133333
v -0.00843562 -0.0235318 -0.187601
v -0.0106319 -0.0226266 -0.189419
v -0.011943 -0.0219628 -0.133333
v -0.0124348 -0.0216859 -0.191617
v -0.0131951 -0.021233 -0.19287
v -0.013836 -0.0208222 -0.194206
v -0.0151556 -0.0198823 -0.133333
v -0.014343 -0.0204764 -0.19561
v -0.014709 -0.020215 -0.19706
v -0.0149277 -0.0200542 -0.198532
v -0.015 -0.02 -0.2
v -0.0178999 -0.0174526 -0.2
v -0.018013 -0.0173358 -0.133333
v -0.0203731 -0.0144892 -0.2
v -0.0204482 -0.014383 -0.133333
v -0.0223607 -0.0111803 -0.2
v -0.0224041 -0.011093 -0.133333
v -0.0238152 -0.007605 -0.2
v -0.0238349 -0.00754301 -0.133333
v -0.024702 -0.00384837 -0.2
v -0.0247042 -0.00383409 -0.133333
v -0.025 3.06162e-18 -0.2
v -0.025 -3.06162e-18 -0.133333
v -0.0247042 0.00383409 -0.133333
v -0.0247065 0.0038198 -0.0666667
v -0.0238349 0.00754301 -0.0666667
v -0.0238349 0.00754301 -0.05
v -0.0224041 0.011093 -0.05
v -0.0224041 0.011093 -0.0666667
v -0.0204482 0.014383 -0.0666667
v -0.0204482 0.014383 -0.133333
v -0.018013 0.0173358 -0.133333
v -0.0204482 0.014383 -0.05
v -0.018013 0.0173358 -0.0666667
v -0.0151556 0.0198823 -0.133333
v -0.018013 0.0173358 -0.05
v -0.0151556 0.0198823 -0.0666667
v -0.011943 0.0219628 -0.133333
v -0.0151556 0.0198823 -0.05
v -0.011943 0.0219628 -0.0666667
v -0.00844871 0.0235291 -0.0666667
v -0.00844185 0.0235316 -0.133333
v -0.00475978 0.0245427 -0.0666667
v -0.00475978 0.0245427 -0.133333
v -0.000957568 0.0249817 -0.133333
v -0.011943 0.0219628 -0.05
v -0.00845042 0.0235285 -0.05
v -0.00475978 0.0245427 -0.05
v -0.000957568 0.0249817 -0.0666667
v 0.00286709 0.0248351 -0.133333
v -0.000957568 0.0249817 -0.05
v 0.00286709 0.0248351 -0.0666667
v 0.00662454 0.0241063 -0.133333
v 0.00286709 0.0248351 -0.05
v 0.00662454 0.0241063 -0.0666667
v 0.0102267 0.0228126 -0.133333
v 0.00662454 0.0241063 -0.05
v 0.0102267 0.0228126 -0.0666667
v 0.0135892 0.0209841 -0.133333
v 0.0102267 0.0228126 -0.05
v 0.0135892 0.0209841 -0.0666667
v 0.0166331 0.0186638 -0.133333
v 0.0135892 0.0209841 -0.05
v 0.0166331 0.0186638 -0.0666667
v 0.0192872 0.0159061 -0.133333
v 0.0166331 0.0186638 -0.05
v 0.0192872 0.0159061 -0.0666667
v 0.0214892 0.0127755 -0.133333
v 0.0192872 0.0159061 -0.05
v 0.0214892 0.0127755 -0.0666667
v 0.0231876 0.00934543 -0.133333
v 0.0214892 0.0127755 -0.05
v 0.0231876 0.00934543 -0.0666667
v 0.0243424 0.00569634 -0.133333
v 0.0231876 0.00934543 -0.05
v 0.0243424 0.00569634 -0.0666667
v 0.0249266 0.00191373 -0.133333
v 0.0243424 0.00569634 -0.05
v 0.0249266 0.00191373 -0.0666667
v 0.0249266 -0.00191373 -0.133333
v 0.0249266 0.00191373 -0.05
v 0.0249266 -0.00191373 -0.0666667
v 0.0243424 -0.00569634 -0.133333
v 0.0249266 -0.00191373 -0.05
v 0.0243424 -0.00569634 -0.0666667
v 0.0231876 -0.00934543 -0.133333
v 0.0243424 -0.00569634 -0.05
v 0.0231876 -0.00934543 -0.0666667
v 0.0214892 -0.0127755 -0.133333
v 0.0231876 -0.00934543 -0.05
v 0.0214892 -0.0127755 -0.0666667
v 0.0192872 -0.0159061 -0.133333
v 0.0214892 -0.0127755 -0.05
v 0.0192872 -0.0159061 -0.0666667
v 0.0166331 -0.0186638 -0.133333
v 0.0192872 -0.0159061 -0.05
v 0.0166331 -0.0186638 -0.0666667
v 0.0135892 -0.0209841 -0.133333
v 0.0166331 -0.0186638 -0.05
v 0.0135892 -0.0209841 -0.0666667
v 0.0102267 -0.0228126 -0.133333
v 0.0135892 -0.0209841 -0.05
v 0.0102267 -0.0228126 -0.0666667
v 0.00662454 -0.0241063 -0.133333
v 0.0102267 -0.0228126 -0.05
v 0.00662454 -0.0241063 -0.0666667
v 0.00286709 -0.0248351 -0.133333
v 0.00662454 -0.0241063 -0.05
v 0.00286709 -0.0248351 -0.0666667
v -0.000957568 -0.0249817 -0.133333
v 0.00286709 -0.0248351 -0.05
v -0.000957568 -0.0249817 -0.0666667
v -0.00475978 -0.0245427 -0.133333
v -0.000957568 -0.0249817 -0.05
v -0.00475978 -0.0245427 -0.0666667
v -0.00844185 -0.0235316 -0.133333
v -0.00475978 -0.0245427 -0.05
v -0.00844871 -0.0235291 -0.0666667
v -0.011943 -0.0219628 -0.133333
v -0.00845042 -0.0235285 -0.05
v -0.011943 -0.0219628 -0.0666667
v -0.0151556 -0.0198823 -0.133333
v -0.011943 -0.0219628 -0.05
v -0.0151556 -0.0198823 -0.0666667
v -0.018013 -0.0173358 -0.133333
v -0.0151556 -0.0198823 -0.05
v -0.018013 -0.0173358 -0.0666667
v -0.0204482 -0.014383 -0.133333
v -0.018013 -0.0173358 -0.05
v -0.0204482 -0.014383 -0.0666667
v -0.0224041 -0.011093 -0.133333
v -0.0204482 -0.014383 -0.05
v -0.0224041 -0.011093 -0.0666667
v -0.0238349 -0.00754301 -0.133333
v -0.0224041 -0.011093 -0.05
v -0.0238349 -0.00754301 -0.0666667
v -0.0247042 -0.00383409 -0.133333
v -0.0238349 -0.00754301 -0.05
v -0.0247065 -0.0038198 -0.0666667
v -0.025 -3.06162e-18 -0.133333
v -0.024707 -0.00381623 -0.05
v -0.025 -3.06162e-18 -0.0666667
v -0.0247065 0.0038198 -0.0666667
v -0.0223607 0.0111803 -0.2
v -0.0238152 0.007605 -0.2
v -0.0224041 0.011093 -0.133333
v -0.0238349 0.00754301 -0.133333
v -0.0238349 0.00754301 -0.0666667
v -0.0247042 0.00383409 -0.133333
v -0.024702 0.00384837 -0.2
v -0.025 3.06162e-18 -0.2
v 0.0249266 -0.00191373 -0.05
v -0.025 3.06162e-18 -0.05
v 0.0249266 0.00191373 -0.05
v -0.024707 0.00381623 -0.05
v 0.0243424 0.00569634 -0.05
v -0.0238349 0.00754301 -0.05
v 0.0231876 0.00934543 -0.05
v -0.0224041 0.011093 -0.05
v 0.0214892 0.0127755 -0.05
v -0.0204482 0.014383 -0.05
v 0.0192872 0.0159061 -0.05
v -0.018013 0.0173358 -0.05
v 0.0166331 0.0186638 -0.05
v -0.0151556 0.0198823 -0.05
v 0.0135892 0.0209841 -0.05
v -0.011943 0.0219628 -0.05
v 0.0102267 0.0228126 -0.05
v -0.00845042 0.0235285 -0.05
v 0.00662454 0.0241063 -0.05
v -0.00475978 0.0245427 -0.05
v 0.00286709 0.0248351 -0.05
v -0.000957568 0.0249817 -0.05
v -0.024707 -0.00381623 -0.05
v 0.0243424 -0.00569634 -0.05
v -0.0238349 -0.00754301 -0.05
v 0.0231876 -0.00934543 -0.05
v -0.0224041 -0.011093 -0.05
v 0.0214892 -0.0127755 -0.05
v -0.0204482 -0.014383 -0.05
v 0.0192872 -0.0159061 -0.05
v -0.018013 -0.0173358 -0.05
v 0.0166331 -0.0186638 -0.05
v -0.0151556 -0.0198823 -0.05
v 0.0135892 -0.0209841 -0.05
v -0.011943 -0.0219628 -0.05
v 0.0102267 -0.0228126 -0.05
v -0.00845042 -0.0235285 -0.05
v 0.00662454 -0.0241063 -0.05
v -0.00475978 -0.0245427 -0.05
v 0.00286709 -0.0248351 -0.05
v -0.000957568 -0.0249817 -0.05
v 0.015 0.02 -0.2
v 0.0178999 0.0174526 -0.2
v 0.015 -0.02 -0.2
v 0.0178999 -0.0174526 -0.2
v 0.0203731 -0.0144892 -0.2
v 0.0203731 0.0144892 -0.2
v 0.0223607 -0.0111803 -0.2
v 0.0223607 0.0111803 -0.2
v 0.0238152 -0.007605 -0.2
v 0.0238152 0.007605 -0.2
v 0.024702 -0.00384837 -0.2
v 0.024702 0.00384837 -0.2
v 0.025 -6.12323e-18 -0.2
vn -0.995185 -9.87621e-17 -0.0980171
vn -0.99879 -9.90071e-17 0.0491802
vn -0.995176 0.00412505 0.0980163
vn -0.989142 -4.06321e-05 0.146964
vn -0.969578 4.15685e-05 0.244782
vn -0.95694 -1.32802e-16 -0.290285
vn -0.881921 -1.22391e-16 -0.471397
vn -0.77301 1.43036e-16 -0.634393
vn -0.634393 -1.17386e-16 -0.77301
vn -0.471397 -6.54194e-17 -0.881921
vn -0.290285 2.68567e-17 -0.95694
vn -0.0980171 1.13355e-18 -0.995185
vn 0.0980171 -8.97239e-19 -0.995185
vn 0.290285 2.01425e-17 -0.95694
vn 0.471397 3.27097e-17 -0.881921
vn 0.634393 -5.86932e-17 -0.77301
vn 0.77301 -1.43036e-16 -0.634393
vn 0.881921 8.15941e-17 -0.471397
vn 0.95694 1.32802e-16 -0.290285
vn 0.995185 0 -0.0980171
vn 0.99879 -9.90071e-17 0.0491802
vn 0.995176 0.00412505 0.0980163
vn 0.989142 -4.06321e-05 0.146964
vn 0.969578 4.15685e-05 0.244782
vn 0.956932 0.00422724 0.290282
vn 0.940509 -0.000165979 0.33977
vn 0.901698 0.000181659 0.432366
vn 0.881913 0.00432225 0.471392
vn 0.854905 -0.000384717 0.518784
vn 0.77301 0.000171199 0.634393
vn 0.773229 0.00023396 0.634127
vn 0.637515 -0.000229453 0.770438
vn 0.634393 0.00058576 0.77301
vn 0.521862 -0.000655669 0.85303
vn 0.471391 0.00514255 0.88191
vn 0.435393 0.000398606 0.900241
vn 0.341629 -0.000345409 0.939835
vn 0.29028 0.00557281 0.956925
vn 0.246 0.000106093 0.96927
vn 0.147441 -0.000101792 0.989071
vn 0.0980155 0.0057356 0.995168
vn 0.0493017 -1.43731e-17 0.998784
vn -0.0493017 1.41665e-17 0.998784
vn -0.0980155 0.0057356 0.995168
vn -0.147441 -0.000101792 0.989071
vn -0.246 0.000106093 0.96927
vn -0.29028 0.00557281 0.956925
vn -0.341629 -0.000345409 0.939835
vn -0.435393 0.000398606 0.900241
vn -0.471391 0.00514255 0.88191
vn -0.521862 -0.000655669 0.85303
vn -0.634393 0.00058576 0.77301
vn -0.637515 -0.000229453 0.770438
vn -0.77301 0.000233133 0.634393
vn -0.773216 0.00016993 0.634143
vn -0.854905 -0.000384717 0.518784
vn -0.881913 0.00432225 0.471392
vn -0.901698 0.000181659 0.432366
vn -0.940509 -0.000165979 0.33977
vn -0.956932 0.00422724 0.290282
vn -0.99879 9.90071e-17 0.0491802
vn -0.995176 -0.00412505 0.0980163
vn -0.989142 4.06321e-05 0.146964
vn -0.969578 -4.15685e-05 0.244782
vn -0.956932 -0.00422724 0.290282
vn -0.940509 0.000165979 0.33977
vn -0.901698 -0.000181659 0.432366
vn -0.881913 -0.00432225 0.471392
vn -0.854905 0.000384717 0.518784
vn -0.773216 -0.00016993 0.634143
vn -0.77301 -0.000233133 0.634393
vn -0.637515 0.000229453 0.770438
vn -0.634393 -0.00058576 0.77301
vn -0.521862 0.000655669 0.85303
vn -0.471391 -0.00514255 0.88191
vn -0.435393 -0.000398606 0.900241
vn -0.341629 0.000345409 0.939835
vn -0.29028 -0.00557281 0.956925
vn -0.246 -0.000106093 0.96927
vn -0.147441 0.000101792 0.989071
vn -0.0980155 -0.0057356 0.995168
vn -0.0493017 2.15597e-18 0.998784
vn 0.0493017 -2.71037e-18 0.998784
vn 0.0980155 -0.0057356 0.995168
vn 0.147441 0.000101792 0.989071
vn 0.246 -0.000106093 0.96927
vn 0.29028 -0.00557281 0.956925
vn 0.341629 0.000345409 0.939835
vn 0.435393 -0.000398606 0.900241
vn 0.471391 -0.00514255 0.88191
vn 0.521862 0.000655669 0.85303
vn 0.634393 -0.00058576 0.77301
vn 0.637515 0.000229453 0.770438
vn 0.773229 -0.00023396 0.634127
vn 0.77301 -0.000171199 0.634393
vn 0.854905 0.000384717 0.518784
vn 0.881913 -0.00432225 0.471392
vn 0.901698 -0.000181659 0.432366
vn 0.940509 0.000165979 0.33977
vn 0.956932 -0.00422724 0.290282
vn 0.969578 -4.15685e-05 0.244782
vn 0.989142 4.06321e-05 0.146964
vn 0.995176 -0.00412505 0.0980163
vn 0.99879 9.92921e-17 0.0491802
vn 0.995185 9.86497e-17 -0.0980171
vn 0.95694 0 -0.290285
vn 0.881921 -1.22391e-16 -0.471397
vn 0.77301 -7.15178e-17 -0.634393
vn 0.634393 1.17386e-16 -0.77301
vn 0.471397 4.3613e-17 -0.881921
vn 0.290285 -2.01425e-17 -0.95694
vn 0.0980171 -6.80131e-18 -0.995185
vn -0.0980171 -8.97239e-19 -0.995185
vn -0.290285 -3.35709e-18 -0.95694
vn -0.471397 -4.3613e-17 -0.881921
vn -0.634393 8.80398e-17 -0.77301
vn -0.77301 1.43036e-16 -0.634393
vn -0.881921 -1.63188e-16 -0.471397
vn -0.95694 1.32802e-16 -0.290285
vn 0 -1 0
vn 0 1 0
vn 0 0 -1
vn -0.997066 -0.0765493 2.65565e-17
vn -0.997066 0.0765493 -2.81237e-17
vn -0.99706 0.0766213 -1.65956e-05
vn -0.973695 0.227854 1.658e-05
vn -0.973679 0.227924 0
vn -0.927502 0.373817 0
vn -0.85957 0.511019 0
vn -0.85957 0.511019 0.000109173
vn -0.857234 0.514927 -0.000145564
vn -0.771489 0.636242 0.000144299
vn -0.767752 0.640747 -0.000180373
vn -0.665326 0.746553 0.000178791
vn -0.659968 0.751294 -0.00021455
vn -0.60017 0.799873 1.08004e-05
vn -0.592477 0.805588 5.27626e-05
vn -0.581646 0.813442 0.000169677
vn -0.564479 0.825447 0.00050819
vn -0.541443 0.840737 0.00124366
vn -0.543567 0.839365 0.00114258
vn -0.51209 0.858932 0.00024075
vn -0.462274 0.886737 -0.000311696
vn -0.408902 0.912577 0.00124177
vn -0.381012 0.92457 -4.07881e-05
vn -0.312912 0.949782 -3.28804e-05
vn -0.264806 0.964301 0.00121826
vn -0.261475 0.96521 0.0010577
vn -0.204738 0.978817 -0.000150169
vn -0.147576 0.989051 0.000240933
vn -0.114683 0.993401 0.00140894
vn -0.0884055 0.996085 0.000392177
vn -0.0295988 0.999562 -0.000193654
vn 0.0296529 0.99956 0.000904493
vn 0.0383027 0.999265 0.00131073
vn 0.0883406 0.99609 -4.64124e-05
vn 0.147529 0.989058 5.17282e-05
vn 0.190391 0.981707 0.00135014
vn 0.205035 0.978754 0.000703098
vn 0.260913 0.965362 -0.000189714
vn 0.313148 0.949704 0.000395286
vn 0.338017 0.941139 0.0013159
vn 0.380818 0.92465 -0.000315287
vn 0.46296 0.886379 0.000405076
vn 0.47772 0.878512 0.0011163
vn 0.512042 0.85896 0.000201067
vn 0.539529 0.841967 -5.19146e-05
vn 0.563687 0.825989 8.85237e-05
vn 0.582302 0.812973 0.000419978
vn 0.595609 0.803274 0.000770885
vn 0.619714 0.784826 0.00152886
vn 0.606225 0.795292 0.0010889
vn 0.659967 0.751294 -0.00110948
vn 0.720521 0.693432 0.00109239
vn 0.767751 0.640747 -0.00111265
vn 0.817929 0.575318 0.00109525
vn 0.857234 0.514926 -0.00111519
vn 0.896165 0.44372 0.00109747
vn 0.926281 0.376831 -0.00111709
vn 0.953396 0.30172 0.00109905
vn 0.973248 0.229753 -0.00111836
vn 0.98828 0.152649 0.00110001
vn 0.997015 0.0771977 -0.00111899
vn 0.999999 0 0.00110032
vn 0.997015 -0.0771977 -0.00111899
vn 0.98828 -0.152649 0.00110001
vn 0.973248 -0.229753 -0.00111836
vn 0.953396 -0.30172 0.00109905
vn 0.926281 -0.376831 -0.00111709
vn 0.896165 -0.44372 0.00109747
vn 0.857234 -0.514926 -0.00111519
vn 0.817929 -0.575318 0.00109525
vn 0.767751 -0.640747 -0.00111265
vn 0.720521 -0.693432 0.00109239
vn 0.659967 -0.751294 -0.00110948
vn 0.611425 -0.791302 0.000881544
vn 0.598477 -0.801139 0.00143001
vn 0.606225 -0.795292 0.00105375
vn 0.582302 -0.812973 0.000419978
vn 0.563687 -0.825989 8.85237e-05
vn 0.539529 -0.841967 -5.19146e-05
vn 0.512042 -0.85896 0.000201067
vn 0.47772 -0.878512 0.0011163
vn 0.46296 -0.886379 0.000405076
vn 0.380818 -0.92465 -0.000315287
vn 0.338017 -0.941139 0.0013159
vn 0.313148 -0.949704 0.000395286
vn 0.260913 -0.965362 -0.000189714
vn 0.205035 -0.978754 0.000703098
vn 0.190391 -0.981707 0.00135014
vn 0.147529 -0.989058 5.17282e-05
vn 0.0883406 -0.99609 -4.64124e-05
vn 0.0383027 -0.999265 0.00131073
vn 0.0296529 -0.99956 0.000904493
vn -0.0295988 -0.999562 -0.000193654
vn -0.0884055 -0.996085 0.000392177
vn -0.114683 -0.993401 0.00140894
vn -0.147576 -0.989051 0.000240933
vn -0.204738 -0.978817 -0.000150169
vn -0.261475 -0.96521 0.0010577
vn -0.264806 -0.964301 0.00121826
vn -0.312912 -0.949782 -3.28804e-05
vn -0.381012 -0.92457 -4.07881e-05
vn -0.408902 -0.912577 0.00124177
vn -0.462274 -0.886737 -0.000311696
vn -0.51209 -0.858932 0.00024075
vn -0.541192 -0.840898 0.00107383
vn -0.543567 -0.839365 0.00117642
vn -0.564479 -0.825447 0.00050819
vn -0.581646 -0.813442 0.000169677
vn -0.592477 -0.805588 5.27626e-05
vn -0.60017 -0.799873 1.08004e-05
vn -0.659968 -0.751294 -0.00021455
vn -0.665326 -0.746553 0.000178791
vn -0.767752 -0.640747 -0.000180373
vn -0.771489 -0.636242 0.000144299
vn -0.857234 -0.514927 -0.000145564
vn -0.85957 -0.511019 0.000109173
vn -0.926282 -0.376831 -0.000110122
vn -0.927502 -0.373817 7.3415e-05
vn -0.973249 -0.229753 -7.40477e-05
vn -0.973613 -0.228205 1.6455e-05
vn -0.997016 -0.0771977 -1.66737e-05
vn -0.997038 -0.0769095 -7.06402e-18
vn -0.997038 0.0769095 7.06402e-18
vn -0.997038 0.0769095 -1.66113e-05
vn -0.973679 0.227924 1.65175e-05
vn -0.927502 0.373817 0
vn -0.85957 0.511019 0
vn -0.771489 0.636242 0
vn -0.665326 0.746553 0
vn -0.543568 0.839365 0
vn -0.409035 0.912519 0
vn -0.408902 0.912578 -8.36858e-06
vn -0.264946 0.964263 8.34477e-06
vn -0.264806 0.964302 0
vn -0.114683 0.993402 0
vn -0.409069 0.912504 0
vn -0.264982 0.964253 8.36064e-06
vn 0.0383027 0.999266 0
vn 0.190391 0.981708 0
vn 0.338017 0.94114 0
vn 0.47772 0.878512 0
vn 0.606225 0.795293 0
vn 0.720522 0.693433 3.74972e-17
vn 0.817929 0.575319 0
vn 0.896166 0.44372 0
vn 0.953396 0.301721 0
vn 0.98828 0.152649 0
vn 1 0 0
vn 0.98828 -0.152649 0
vn 0.953396 -0.301721 0
vn 0.896166 -0.44372 0
vn 0.817929 -0.575319 -4.49108e-17
vn 0.720522 -0.693433 0
vn 0.606225 -0.795293 0
vn 0.47772 -0.878512 0
vn 0.338017 -0.94114 0
vn 0.190391 -0.981708 0
vn 0.0383027 -0.999266 0
vn -0.114683 -0.993402 0
vn -0.264806 -0.964302 0
vn -0.264946 -0.964263 0
vn -0.408902 -0.912578 -8.36858e-06
vn -0.264982 -0.964253 8.36064e-06
vn -0.409035 -0.912519 -8.36461e-06
vn -0.543568 -0.839365 0
vn -0.409069 -0.912504 0
vn -0.665326 -0.746553 0
vn -0.771489 -0.636242 0
vn -0.85957 -0.511019 0
vn -0.927502 -0.373817 0
vn -0.973613 -0.228205 0
vn -0.973679 -0.227924 0
vn -0.973679 -0.227924 1.65175e-05
vn -0.997038 -0.0769095 -1.66113e-05
vn -0.973695 -0.227854 1.658e-05
vn -0.99706 -0.0766213 -1.65956e-05
vn -0.99706 -0.0766213 0
vn -0.99706 0.0766213 0
vn -0.926282 0.376831 -0.000110122
vn -0.927502 0.373817 7.3415e-05
vn -0.927502 0.373817 0
vn -0.973613 0.228205 0
vn -0.973249 0.229753 -7.40477e-05
vn -0.973613 0.228205 1.6455e-05
vn -0.997016 0.0771977 -1.66737e-05
vn 0 0 1
vn 0 0 -1
f 1//1 2//1 3//1
f 3//2 2//2 4//2
f 3//3 4//3 5//3
f 5//4 4//4 6//4
f 5//5 6//5 7//5
f 8//6 9//6 1//6
f 1//6 9//6 10//6
f 1//1 10//1 2//1
f 2//1 10//1 11//1
f 11//1 10//1 12//1
f 11//1 12//1 13//1
f 9//7 8//7 14//7
f 14//7 8//7 15//7
f 14//8 15//8 16//8
f 16//8 15//8 17//8
f 16//9 17//9 18//9
f 18//9 17//9 19//9
f 18//10 19//10 20//10
f 20//10 19//10 21//10
f 20//11 21//11 22//11
f 22//11 21//11 23//11
f 22//12 23//12 24//12
f 24//12 23//12 25//12
f 24//13 25//13 26//13
f 26//13 25//13 27//13
f 26//14 27//14 28//14
f 28//14 27//14 29//14
f 28//15 29//15 30//15
f 30//15 29//15 31//15
f 30//16 31//16 32//16
f 32//16 31//16 33//16
f 32//17 33//17 34//17
f 34//17 33//17 35//17
f 34//18 35//18 36//18
f 36//18 35//18 37//18
f 36//19 37//19 38//19
f 38//19 37//19 39//19
f 38//20 39//20 40//20
f 40//20 39//20 41//20
f 40//21 41//21 42//21
f 42//22 41//22 43//22
f 42//23 43//23 44//23
f 44//24 43//24 45//24
f 45//25 43//25 46//25
f 45//26 46//26 47//26
f 47//27 46//27 48//27
f 48//28 46//28 49//28
f 48//29 49//29 50//29
f 50//30 49//30 51//30
f 50//31 51//31 52//31
f 52//32 51//32 53//32
f 53//33 51//33 54//33
f 53//34 54//34 55//34
f 55//35 54//35 56//35
f 55//36 56//36 57//36
f 57//37 56//37 58//37
f 58//38 56//38 59//38
f 58//39 59//39 60//39
f 60//40 59//40 61//40
f 61//41 59//41 62//41
f 61//42 62//42 63//42
f 63//43 62//43 64//43
f 64//44 62//44 65//44
f 64//45 65//45 66//45
f 66//46 65//46 67//46
f 67//47 65//47 68//47
f 67//48 68//48 69//48
f 69//49 68//49 70//49
f 70//50 68//50 71//50
f 70//51 71//51 72//51
f 72//52 71//52 73//52
f 72//53 73//53 74//53
f 74//54 73//54 75//54
f 74//55 75//55 76//55
f 76//56 75//56 77//56
f 77//57 75//57 78//57
f 77//58 78//58 79//58
f 79//59 78//59 80//59
f 80//60 78//60 81//60
f 82//61 83//61 84//61
f 84//62 83//62 85//62
f 84//63 85//63 86//63
f 86//64 85//64 87//64
f 87//65 85//65 88//65
f 87//66 88//66 89//66
f 89//67 88//67 90//67
f 90//68 88//68 91//68
f 90//69 91//69 92//69
f 92//70 91//70 93//70
f 93//71 91//71 94//71
f 93//72 94//72 95//72
f 95//73 94//73 96//73
f 95//74 96//74 97//74
f 97//75 96//75 98//75
f 97//76 98//76 99//76
f 99//77 98//77 100//77
f 100//78 98//78 101//78
f 100//79 101//79 102//79
f 102//80 101//80 103//80
f 103//81 101//81 104//81
f 103//82 104//82 105//82
f 105//83 104//83 106//83
f 106//84 104//84 107//84
f 106//85 107//85 108//85
f 108//86 107//86 109//86
f 109//87 107//87 110//87
f 109//88 110//88 111//88
f 111//89 110//89 112//89
f 112//90 110//90 113//90
f 112//91 113//91 114//91
f 114//92 113//92 115//92
f 114//93 115//93 116//93
f 116//94 115//94 117//94
f 117//95 115//95 118//95
f 117//96 118//96 119//96
f 119//97 118//97 120//97
f 119//98 120//98 121//98
f 121//99 120//99 122//99
f 122//100 120//100 123//100
f 122//101 123//101 124//101
f 124//102 123//102 125//102
f 125//103 123//103 126//103
f 125//104 126//104 127//104
f 127//105 126//105 128//105
f 127//105 128//105 129//105
f 129//106 128//106 130//106
f 128//106 131//106 130//106
f 130//107 131//107 132//107
f 131//107 133//107 132//107
f 132//108 133//108 134//108
f 133//108 135//108 134//108
f 134//109 135//109 136//109
f 135//109 137//109 136//109
f 136//110 137//110 138//110
f 137//110 139//110 138//110
f 138//111 139//111 140//111
f 139//111 141//111 140//111
f 140//112 141//112 142//112
f 141//112 143//112 142//112
f 142//113 143//113 144//113
f 143//113 145//113 144//113
f 144//114 145//114 146//114
f 145//114 147//114 146//114
f 146//115 147//115 148//115
f 147//115 149//115 148//115
f 148//116 149//116 150//116
f 149//116 151//116 150//116
f 150//117 151//117 152//117
f 151//117 153//117 152//117
f 152//118 153//118 154//118
f 153//118 155//118 154//118
f 154//119 155//119 156//119
f 155//119 157//119 156//119
f 158//105 159//105 160//105
f 161//120 157//120 162//120
f 162//120 157//120 163//120
f 163//120 157//120 155//120
f 163//120 155//120 164//120
f 164//120 155//120 153//120
f 164//120 153//120 165//120
f 165//120 153//120 151//120
f 165//120 151//120 166//120
f 166//120 151//120 149//120
f 166//120 149//120 167//120
f 167//120 149//120 147//120
f 167//120 147//120 168//120
f 168//120 147//120 145//120
f 168//120 145//120 169//120
f 169//120 145//120 143//120
f 169//120 143//120 170//120
f 170//120 171//120 172//120
f 170//120 172//120 173//120
f 173//120 172//120 174//120
f 173//120 174//120 175//120
f 175//120 174//120 176//120
f 175//120 176//120 177//120
f 177//120 176//120 178//120
f 177//120 178//120 179//120
f 179//120 178//120 180//120
f 179//120 180//120 181//120
f 181//120 180//120 182//120
f 181//120 182//120 183//120
f 183//120 182//120 184//120
f 183//120 184//120 185//120
f 186//121 187//121 188//121
f 188//121 187//121 189//121
f 189//121 187//121 190//121
f 189//121 190//121 191//121
f 191//121 190//121 192//121
f 191//121 192//121 193//121
f 193//121 192//121 194//121
f 193//121 194//121 195//121
f 195//121 194//121 196//121
f 195//121 196//121 197//121
f 197//121 196//121 198//121
f 197//121 198//121 199//121
f 199//121 198//121 200//121
f 199//121 200//121 201//121
f 201//121 200//121 202//121
f 201//121 202//121 203//121
f 203//121 202//121 204//121
f 203//121 204//121 205//121
f 205//121 204//121 206//121
f 205//121 206//121 207//121
f 207//121 206//121 208//121
f 207//121 208//121 209//121
f 209//121 208//121 210//121
f 209//121 210//121 211//121
f 211//121 210//121 212//121
f 211//121 212//121 213//121
f 213//121 212//121 214//121
f 213//121 214//121 215//121
f 215//121 214//121 216//121
f 215//121 216//121 217//121
f 218//122 219//122 220//122
f 220//122 219//122 221//122
f 220//122 221//122 222//122
f 220//122 222//122 223//122
f 223//122 222//122 224//122
f 223//122 224//122 225//122
f 225//122 224//122 226//122
f 225//122 226//122 227//122
f 227//122 226//122 228//122
f 227//122 228//122 229//122
f 229//122 228//122 230//122
f 231//123 232//123 233//123
f 233//124 232//124 234//124
f 233//125 234//125 235//125
f 235//126 234//126 236//126
f 235//127 236//127 237//127
f 237//128 236//128 238//128
f 237//128 238//128 239//128
f 239//129 238//129 240//129
f 239//130 240//130 225//130
f 225//131 240//131 223//131
f 223//132 240//132 241//132
f 223//133 241//133 220//133
f 220//134 241//134 242//134
f 220//135 242//135 218//135
f 218//136 242//136 243//136
f 243//137 242//137 244//137
f 244//138 242//138 245//138
f 245//139 242//139 246//139
f 246//140 242//140 247//140
f 247//141 242//141 248//141
f 247//142 248//142 249//142
f 249//143 248//143 250//143
f 250//144 248//144 251//144
f 250//145 251//145 252//145
f 252//146 251//146 253//146
f 253//147 251//147 254//147
f 253//148 254//148 255//148
f 255//149 254//149 256//149
f 256//150 254//150 257//150
f 257//151 254//151 258//151
f 257//152 258//152 259//152
f 259//153 258//153 260//153
f 260//154 258//154 261//154
f 261//155 258//155 262//155
f 261//156 262//156 263//156
f 263//157 262//157 264//157
f 264//158 262//158 265//158
f 264//159 265//159 266//159
f 266//160 265//160 267//160
f 267//161 265//161 268//161
f 268//162 265//162 269//162
f 268//163 269//163 270//163
f 270//164 269//164 271//164
f 271//165 269//165 272//165
f 271//166 272//166 273//166
f 273//167 272//167 274//167
f 274//168 272//168 275//168
f 275//169 272//169 276//169
f 276//170 272//170 277//170
f 277//171 272//171 278//171
f 278//172 272//172 279//172
f 278//173 279//173 280//173
f 280//174 279//174 281//174
f 280//175 281//175 282//175
f 282//176 281//176 283//176
f 282//177 283//177 284//177
f 284//178 283//178 285//178
f 284//179 285//179 286//179
f 286//180 285//180 287//180
f 286//181 287//181 288//181
f 288//182 287//182 289//182
f 288//183 289//183 290//183
f 290//184 289//184 291//184
f 290//185 291//185 292//185
f 292//186 291//186 293//186
f 292//187 293//187 294//187
f 294//188 293//188 295//188
f 294//189 295//189 296//189
f 296//190 295//190 297//190
f 296//191 297//191 298//191
f 298//192 297//192 299//192
f 298//193 299//193 300//193
f 300//194 299//194 301//194
f 300//195 301//195 302//195
f 302//196 301//196 303//196
f 303//197 301//197 304//197
f 304//198 301//198 305//198
f 304//199 305//199 306//199
f 306//200 305//200 307//200
f 307//201 305//201 308//201
f 308//202 305//202 309//202
f 309//203 305//203 310//203
f 309//204 310//204 311//204
f 311//205 310//205 312//205
f 312//206 310//206 313//206
f 312//207 313//207 314//207
f 314//208 313//208 315//208
f 315//209 313//209 316//209
f 316//210 313//210 317//210
f 316//211 317//211 318//211
f 318//212 317//212 319//212
f 319//213 317//213 320//213
f 319//214 320//214 321//214
f 321//215 320//215 322//215
f 322//216 320//216 323//216
f 323//217 320//217 324//217
f 323//218 324//218 325//218
f 325//219 324//219 326//219
f 326//220 324//220 327//220
f 327//221 324//221 328//221
f 327//222 328//222 329//222
f 329//223 328//223 330//223
f 330//224 328//224 331//224
f 330//225 331//225 332//225
f 332//226 331//226 333//226
f 333//227 331//227 334//227
f 334//228 331//228 335//228
f 334//229 335//229 336//229
f 336//230 335//230 337//230
f 337//231 335//231 338//231
f 338//232 335//232 339//232
f 339//233 335//233 340//233
f 340//234 335//234 341//234
f 340//235 341//235 342//235
f 342//236 341//236 343//236
f 342//237 343//237 344//237
f 344//238 343//238 345//238
f 344//239 345//239 346//239
f 346//240 345//240 347//240
f 346//241 347//241 348//241
f 348//242 347//242 349//242
f 348//243 349//243 350//243
f 350//244 349//244 351//244
f 350//245 351//245 352//245
f 352//246 351//246 353//246
f 352//247 353//247 354//247
f 355//248 356//248 357//248
f 357//249 356//249 358//249
f 357//249 358//249 359//249
f 359//250 358//250 360//250
f 356//249 361//249 358//249
f 358//250 361//250 362//250
f 358//250 362//250 360//250
f 360//251 362//251 363//251
f 361//250 364//250 362//250
f 362//251 364//251 365//251
f 362//251 365//251 363//251
f 363//252 365//252 366//252
f 364//251 367//251 365//251
f 365//252 367//252 368//252
f 365//252 368//252 366//252
f 366//253 368//253 369//253
f 366//254 369//254 370//254
f 370//255 369//255 371//255
f 370//256 371//256 372//256
f 372//257 371//257 373//257
f 367//252 374//252 368//252
f 368//258 374//258 375//258
f 368//253 375//253 369//253
f 369//259 375//259 376//259
f 369//255 376//255 371//255
f 371//257 376//257 377//257
f 371//257 377//257 373//257
f 373//260 377//260 378//260
f 376//257 379//257 377//257
f 377//260 379//260 380//260
f 377//260 380//260 378//260
f 378//261 380//261 381//261
f 379//260 382//260 380//260
f 380//261 382//261 383//261
f 380//261 383//261 381//261
f 381//262 383//262 384//262
f 382//261 385//261 383//261
f 383//262 385//262 386//262
f 383//262 386//262 384//262
f 384//263 386//263 387//263
f 385//262 388//262 386//262
f 386//263 388//263 389//263
f 386//263 389//263 387//263
f 387//264 389//264 390//264
f 388//263 391//263 389//263
f 389//264 391//264 392//264
f 389//264 392//264 390//264
f 390//265 392//265 393//265
f 391//264 394//264 392//264
f 392//265 394//265 395//265
f 392//265 395//265 393//265
f 393//266 395//266 396//266
f 394//265 397//265 395//265
f 395//266 397//266 398//266
f 395//266 398//266 396//266
f 396//267 398//267 399//267
f 397//266 400//266 398//266
f 398//267 400//267 401//267
f 398//267 401//267 399//267
f 399//268 401//268 402//268
f 400//267 403//267 401//267
f 401//268 403//268 404//268
f 401//268 404//268 402//268
f 402//269 404//269 405//269
f 403//268 406//268 404//268
f 404//269 406//269 407//269
f 404//269 407//269 405//269
f 405//270 407//270 408//270
f 406//269 409//269 407//269
f 407//270 409//270 410//270
f 407//270 410//270 408//270
f 408//271 410//271 411//271
f 409//270 412//270 410//270
f 410//271 412//271 413//271
f 410//271 413//271 411//271
f 411//272 413//272 414//272
f 412//271 415//271 413//271
f 413//272 415//272 416//272
f 413//272 416//272 414//272
f 414//273 416//273 417//273
f 415//272 418//272 416//272
f 416//273 418//273 419//273
f 416//273 419//273 417//273
f 417//274 419//274 420//274
f 418//273 421//273 419//273
f 419//274 421//274 422//274
f 419//274 422//274 420//274
f 420//275 422//275 423//275
f 421//274 424//274 422//274
f 422//275 424//275 425//275
f 422//275 425//275 423//275
f 423//276 425//276 426//276
f 424//275 427//275 425//275
f 425//276 427//276 428//276
f 425//276 428//276 426//276
f 426//277 428//277 429//277
f 427//276 430//276 428//276
f 428//277 430//277 431//277
f 428//277 431//277 429//277
f 429//278 431//278 432//278
f 430//277 433//277 431//277
f 431//278 433//278 434//278
f 431//278 434//278 432//278
f 432//279 434//279 435//279
f 433//278 436//278 434//278
f 434//279 436//279 437//279
f 434//279 437//279 435//279
f 435//280 437//280 438//280
f 436//279 439//279 437//279
f 437//280 439//280 440//280
f 437//280 440//280 438//280
f 438//281 440//281 441//281
f 439//280 442//280 440//280
f 440//281 442//281 443//281
f 440//281 443//281 441//281
f 441//282 443//282 444//282
f 442//281 445//281 443//281
f 443//283 445//283 446//283
f 443//283 446//283 444//283
f 444//284 446//284 447//284
f 445//285 448//285 446//285
f 446//286 448//286 449//286
f 446//286 449//286 447//286
f 447//287 449//287 450//287
f 448//288 451//288 449//288
f 449//287 451//287 452//287
f 449//287 452//287 450//287
f 450//289 452//289 453//289
f 451//287 454//287 452//287
f 452//289 454//289 455//289
f 452//289 455//289 453//289
f 453//290 455//290 456//290
f 454//289 457//289 455//289
f 455//290 457//290 458//290
f 455//290 458//290 456//290
f 456//291 458//291 459//291
f 457//290 460//290 458//290
f 458//291 460//291 461//291
f 458//291 461//291 459//291
f 459//292 461//292 462//292
f 460//291 463//291 461//291
f 461//292 463//292 464//292
f 461//292 464//292 462//292
f 462//293 464//293 465//293
f 463//292 466//292 464//292
f 464//294 466//294 467//294
f 464//295 467//295 465//295
f 465//296 467//296 468//296
f 466//297 469//297 467//297
f 467//298 469//298 470//298
f 467//299 470//299 468//299
f 468//300 470//300 471//300
f 472//301 473//301 474//301
f 474//302 473//302 475//302
f 474//303 475//303 476//303
f 476//304 475//304 477//304
f 473//305 478//305 475//305
f 475//306 478//306 477//306
f 478//307 479//307 477//307
f 469//308 480//308 481//308
f 481//308 480//308 482//308
f 481//308 482//308 483//308
f 483//308 482//308 484//308
f 483//308 484//308 485//308
f 485//308 484//308 486//308
f 485//308 486//308 487//308
f 487//308 486//308 488//308
f 487//308 488//308 489//308
f 489//308 488//308 490//308
f 489//308 490//308 491//308
f 491//308 490//308 492//308
f 491//308 492//308 493//308
f 493//308 492//308 494//308
f 493//308 494//308 495//308
f 495//308 494//308 496//308
f 495//308 496//308 497//308
f 497//308 496//308 498//308
f 497//308 498//308 499//308
f 499//308 498//308 500//308
f 499//308 500//308 501//308
f 480//308 502//308 503//308
f 503//308 502//308 504//308
f 503//308 504//308 505//308
f 505//308 504//308 506//308
f 505//308 506//308 507//308
f 507//308 506//308 508//308
f 507//308 508//308 509//308
f 509//308 508//308 510//308
f 509//308 510//308 511//308
f 511//308 510//308 512//308
f 511//308 512//308 513//308
f 513//308 512//308 514//308
f 513//308 514//308 515//308
f 515//308 514//308 516//308
f 515//308 516//308 517//308
f 517//308 516//308 518//308
f 517//308 518//308 519//308
f 519//308 518//308 520//308
f 521//309 522//309 523//309
f 523//309 522//309 524//309
f 524//309 522//309 525//309
f 525//309 522//309 526//309
f 525//309 526//309 527//309
f 527//309 526//309 528//309
f 527//309 528//309 529//309
f 529//309 528//309 530//309
f 529//309 530//309 531//309
f 531//309 530//309 532//309
f 531//309 532//309 533//309
